<?xml version="1.0" encoding="UTF-8"?>
<svg version="1.1" xmlns="http://www.w3.org/2000/svg" width="609" height="195">
<path d="M0 0 C200.97 0 401.94 0 609 0 C609 64.35 609 128.7 609 195 C408.03 195 207.06 195 0 195 C0 130.65 0 66.3 0 0 Z " fill="#313030" transform="translate(0,0)"/>
<path d="M0 0 C9.31509945 7.2339139 16.25365418 17.8295974 18.28515625 29.57421875 C19.83170074 44.38721521 16.86558396 57.14897893 7.53515625 68.96875 C1.68588146 75.32902092 -3.39866329 77.93565977 -11.46484375 81.96875 C3.38515625 82.46375 3.38515625 82.46375 18.53515625 82.96875 C18.53515625 83.62875 18.53515625 84.28875 18.53515625 84.96875 C10.76142668 85.07072178 2.98787157 85.14045477 -4.78637695 85.18847656 C-7.42739304 85.20850996 -10.06836524 85.23574451 -12.70922852 85.27050781 C-16.51980466 85.319389 -20.32979096 85.34180267 -24.140625 85.359375 C-25.3087825 85.38002014 -26.47694 85.40066528 -27.68049622 85.42193604 C-40.80907092 85.42547647 -51.84462375 80.69168575 -61.6875 72.0078125 C-71.6937643 61.63523024 -75.75239294 49.38239487 -75.78173828 35.14990234 C-75.56719578 23.55136373 -70.07838902 12.65587152 -62.21484375 4.21875 C-44.58631339 -12.3177475 -19.73719283 -13.40425182 0 0 Z " fill="#2A2424" transform="translate(104.46484375,66.03125)"/>
<path d="M0 0 C9.31509945 7.2339139 16.25365418 17.8295974 18.28515625 29.57421875 C19.83170074 44.38721521 16.86558396 57.14897893 7.53515625 68.96875 C1.68588146 75.32902092 -3.39866329 77.93565977 -11.46484375 81.96875 C3.38515625 82.46375 3.38515625 82.46375 18.53515625 82.96875 C18.53515625 83.62875 18.53515625 84.28875 18.53515625 84.96875 C10.76142668 85.07072178 2.98787157 85.14045477 -4.78637695 85.18847656 C-7.42739304 85.20850996 -10.06836524 85.23574451 -12.70922852 85.27050781 C-16.51980466 85.319389 -20.32979096 85.34180267 -24.140625 85.359375 C-25.3087825 85.38002014 -26.47694 85.40066528 -27.68049622 85.42193604 C-40.80907092 85.42547647 -51.84462375 80.69168575 -61.6875 72.0078125 C-71.6937643 61.63523024 -75.75239294 49.38239487 -75.78173828 35.14990234 C-75.56719578 23.55136373 -70.07838902 12.65587152 -62.21484375 4.21875 C-44.58631339 -12.3177475 -19.73719283 -13.40425182 0 0 Z M-59.71484375 12.28125 C-67.66057747 22.04188669 -68.94923047 31.80809404 -68.46484375 43.96875 C-67.35407907 53.77521528 -62.11984681 62.2545357 -55.07421875 68.921875 C-45.19510877 76.67135648 -35.71633822 78.7188415 -23.46484375 77.96875 C-12.33397902 76.22678443 -3.42091259 71.03250051 3.77734375 62.40625 C10.93613146 52.4793977 12.45668089 43.05240407 11.53515625 30.96875 C9.04970323 19.90493342 2.75050421 10.52551085 -6.46484375 3.96875 C-11.95848962 0.63979034 -16.97399414 -1.7012068 -23.46484375 -2.03125 C-24.43292969 -2.093125 -25.40101562 -2.155 -26.3984375 -2.21875 C-40.32280275 -2.74357884 -50.31634591 2.14139483 -59.71484375 12.28125 Z " fill="#2F2424" transform="translate(104.46484375,66.03125)"/>
<path d="M0 0 C4.89948827 2.31612173 7.85579936 5.68795341 11 10 C12.83361818 15.55851548 12.74178553 21.73100896 10.9375 27.25 C7.82443568 31.66854291 4.17827004 35.27390999 -1 37 C-6.52821777 37.56575328 -12.16858518 38.12991655 -17 35 C-21.43704898 31.10537754 -23.63375193 26.87334828 -24.37890625 21.02734375 C-24.56127508 16.27987138 -24.42211922 12.89294449 -22.375 8.5625 C-15.37921967 1.01442122 -10.3471136 -0.96283757 0 0 Z " fill="#2F2D2D" transform="translate(239,86)"/>
<path d="M0 0 C1.98 0 3.96 0 6 0 C6.46148437 0.92296875 6.92296875 1.8459375 7.3984375 2.796875 C7.70845703 3.41675293 8.01847656 4.03663086 8.33789062 4.67529297 C9.03762871 6.07509859 9.73683533 7.47516998 10.43554688 8.87548828 C12.53051706 13.07182691 14.63719401 17.26187016 16.7578125 21.4453125 C17.21365723 22.34797852 17.66950195 23.25064453 18.13916016 24.18066406 C19.03930642 25.9628697 19.94257936 27.74349992 20.84912109 29.52246094 C21.4652124 30.74497559 21.4652124 30.74497559 22.09375 31.9921875 C22.46177734 32.71776855 22.82980469 33.44334961 23.20898438 34.19091797 C24 36 24 36 24 38 C24.66 38 25.32 38 26 38 C26.259021 37.16122314 26.51804199 36.32244629 26.78491211 35.45825195 C28.09572898 31.72754651 29.70859864 28.21447439 31.44140625 24.66796875 C31.76914536 23.99075272 32.09688446 23.31353668 32.43455505 22.61579895 C33.12283635 21.19557354 33.81289208 19.77620682 34.50463867 18.35766602 C35.56677904 16.1787217 36.62266292 13.99682767 37.67773438 11.81445312 C38.34859401 10.4321148 39.0198054 9.04994711 39.69140625 7.66796875 C40.16641319 6.68681343 40.16641319 6.68681343 40.65101624 5.68583679 C42.8841784 1.1158216 42.8841784 1.1158216 44 0 C45.98 0 47.96 0 50 0 C50 15.51 50 31.02 50 47 C48.02 47 46.04 47 44 47 C43.67 36.44 43.34 25.88 43 15 C41.92878906 17.22621094 40.85757813 19.45242187 39.75390625 21.74609375 C38.71851958 23.89420418 37.68241547 26.04196712 36.64624023 28.18969727 C35.92478472 29.68607954 35.20407925 31.18282367 34.48413086 32.67993164 C33.45101293 34.82793526 32.41523187 36.97463625 31.37890625 39.12109375 C31.05596085 39.79401962 30.73301544 40.4669455 30.40028381 41.16026306 C28.11387171 45.88612829 28.11387171 45.88612829 27 47 C25.35 47 23.7 47 22 47 C14.575 31.655 14.575 31.655 7 16 C6.67 26.23 6.34 36.46 6 47 C4.02 47 2.04 47 0 47 C0 31.49 0 15.98 0 0 Z " fill="#F31817" transform="translate(152,81)"/>
<path d="M0 0 C15.48369565 0 15.48369565 0 21 5 C25.92026141 10.42490361 26.30136857 13.83664924 26.20703125 21.0234375 C25.81758154 26.62269563 23.6134695 29.61947268 19.625 33.3125 C13.90791605 38.28557988 7.41864578 37 0 37 C0 24.79 0 12.58 0 0 Z " fill="#3C3939" transform="translate(498,86)"/>
<path d="M0 0 C3.47029501 2.38545322 5.89926837 5.09287902 8.26171875 8.5546875 C9.18984375 9.885 9.18984375 9.885 10.13671875 11.2421875 C12.36703211 17.80922127 12.26360447 24.87340413 9.76171875 31.3671875 C6.50928805 37.6552202 1.43274607 42.00821307 -5.17578125 44.4921875 C-11.30676991 46.17768266 -16.95872064 46.63160573 -22.86328125 43.9921875 C-29.06108508 40.46649071 -34.14413614 35.71356251 -36.3046875 28.7890625 C-37.70914363 21.55168497 -37.57989483 14.00750462 -33.73828125 7.5546875 C-25.21331849 -3.71951799 -12.39439842 -6.88793884 0 0 Z M-27.55078125 9.6796875 C-31.64738327 15.06379301 -31.31955061 19.93652063 -30.73828125 26.5546875 C-29.33013568 31.75464673 -26.48537506 35.7984461 -21.9296875 38.7109375 C-16.26792784 40.89086635 -10.04113312 40.27965939 -4.36328125 38.4921875 C-0.04694944 35.30632355 3.54792614 31.69606532 5.26171875 26.5546875 C5.83232324 20.27803809 5.5578275 15.08364411 2.26171875 9.5546875 C-2.40516068 4.77977846 -5.72839607 2.40193603 -12.48828125 2.2421875 C-19.53991408 2.31801151 -23.00135013 4.43627536 -27.55078125 9.6796875 Z " fill="#F21918" transform="translate(245.73828125,83.4453125)"/>
<path d="M0 0 C24.26597938 0 24.26597938 0 31.2421875 5.89453125 C36.8961034 12.53585351 38.56610534 18.51541904 38.375 27.22265625 C37.41954462 34.29899769 33.25145011 39.31744822 27.94140625 43.80859375 C19.0426768 49.26958466 10.86846067 47 0 47 C0 31.49 0 15.98 0 0 Z M6 5 C6 17.21 6 29.42 6 42 C16.85879901 42.73008313 16.85879901 42.73008313 25.9453125 38.19140625 C31.37835402 32.19746368 32.35892034 27.99780763 32.28125 19.94921875 C31.78110645 14.70465796 29.27597083 12.14837375 25.5 8.75 C18.2690123 3.68830861 16.64996443 5 6 5 Z " fill="#F51918" transform="translate(492,81)"/>
<path d="M0 0 C1.46933196 0.81378385 2.93202123 1.64035308 4.375 2.5 C3.715 3.82 3.055 5.14 2.375 6.5 C-2.375 5.625 -2.375 5.625 -4.625 4.5 C-12.03251496 3.81432714 -17.68627704 3.79851099 -23.625 8.5 C-27.46727151 12.34227151 -27.93692144 15.62700145 -28.125 20.875 C-27.91299344 26.51565941 -27.4237025 31.14838663 -23.625 35.5 C-19.25641596 39.21018237 -15.19496125 40.90985814 -9.4375 40.5625 C-3.88926419 39.64066579 -0.15579877 37.61144658 3.1875 33 C4.5579635 30.32679227 4.5579635 30.32679227 5.375 26.5 C0.755 26.5 -3.865 26.5 -8.625 26.5 C-8.625 24.85 -8.625 23.2 -8.625 21.5 C-2.025 21.5 4.575 21.5 11.375 21.5 C11.375 28.94729037 10.45206362 32.92745057 6.8125 39.1875 C1.72612721 44.01303316 -4.08502668 46.77549778 -11.125 47.125 C-17.91214681 46.76020286 -23.73169731 44.47117626 -28.51171875 39.5625 C-34.65521921 31.7083396 -35.69831097 24.37222488 -34.625 14.5 C-32.05359265 7.21051934 -25.84347008 2.32177552 -19.3125 -1.375 C-12.16210883 -3.55647527 -6.73550862 -3.35346398 0 0 Z " fill="#F01A19" transform="translate(417.625,82.5)"/>
<path d="M0 0 C9.31509945 7.2339139 16.25365418 17.8295974 18.28515625 29.57421875 C19.83170074 44.38721521 16.86558396 57.14897893 7.53515625 68.96875 C1.68588146 75.32902092 -3.39866329 77.93565977 -11.46484375 81.96875 C3.38515625 82.46375 3.38515625 82.46375 18.53515625 82.96875 C18.53515625 83.62875 18.53515625 84.28875 18.53515625 84.96875 C10.76142668 85.07072178 2.98787157 85.14045477 -4.78637695 85.18847656 C-7.42739304 85.20850996 -10.06836524 85.23574451 -12.70922852 85.27050781 C-16.51980466 85.319389 -20.32979096 85.34180267 -24.140625 85.359375 C-25.3087825 85.38002014 -26.47694 85.40066528 -27.68049622 85.42193604 C-40.80907092 85.42547647 -51.84462375 80.69168575 -61.6875 72.0078125 C-71.6937643 61.63523024 -75.75239294 49.38239487 -75.78173828 35.14990234 C-75.56719578 23.55136373 -70.07838902 12.65587152 -62.21484375 4.21875 C-44.58631339 -12.3177475 -19.73719283 -13.40425182 0 0 Z M-62.90625 8.03125 C-71.41807336 18.61236375 -74.62946085 29.47195452 -73.46484375 42.96875 C-71.34004391 56.37640169 -64.93329337 67.15838667 -54.33984375 75.71875 C-44.41392105 82.1638627 -33.11673198 84.49646896 -21.46484375 82.96875 C-14.02773019 81.05095625 -7.74026806 78.40512635 -1.46484375 73.96875 C-0.53865234 73.31712891 -0.53865234 73.31712891 0.40625 72.65234375 C9.73002597 65.23517534 14.51348913 54.46588303 16.53515625 42.96875 C17.80733879 29.95494827 13.56218724 18.15751607 5.53515625 7.96875 C-2.80487319 -1.2541559 -13.72974199 -6.206491 -26.046875 -7.25 C-40.47234803 -7.74529521 -53.03409095 -2.57481056 -62.90625 8.03125 Z " fill="#E01918" transform="translate(104.46484375,66.03125)"/>
<path d="M0 0 C8.91 0 17.82 0 27 0 C27 1.65 27 3.3 27 5 C20.07 5 13.14 5 6 5 C6 10.28 6 15.56 6 21 C11.61 21 17.22 21 23 21 C23 22.65 23 24.3 23 26 C17.39 26 11.78 26 6 26 C6 31.28 6 36.56 6 42 C13.26 42 20.52 42 28 42 C28 43.65 28 45.3 28 47 C18.76 47 9.52 47 0 47 C0 31.49 0 15.98 0 0 Z " fill="#F91817" transform="translate(537,81)"/>
<path d="M0 0 C9.24 0 18.48 0 28 0 C28 1.65 28 3.3 28 5 C20.41 5 12.82 5 5 5 C5 10.28 5 15.56 5 21 C10.94 21 16.88 21 23 21 C23 22.65 23 24.3 23 26 C17.39 26 11.78 26 6 26 C6 31.28 6 36.56 6 42 C13.26 42 20.52 42 28 42 C28 43.65 28 45.3 28 47 C18.76 47 9.52 47 0 47 C0 31.49 0 15.98 0 0 Z " fill="#F91817" transform="translate(328,81)"/>
<path d="M0 0 C1.65 0 3.3 0 5 0 C5.01401855 1.49781006 5.01401855 1.49781006 5.02832031 3.02587891 C5.06835745 6.74995642 5.13415266 10.47321967 5.20751953 14.19677734 C5.23565005 15.80474341 5.25690389 17.41284572 5.27099609 19.02099609 C5.29253691 21.34022367 5.33923872 23.65782695 5.390625 25.9765625 C5.39185364 26.68930328 5.39308228 27.40204407 5.39434814 28.13638306 C5.54095719 33.19409572 6.81039815 36.10683082 10 40 C13.72579089 42.48386059 15.58711402 42.3804212 20 42 C23.39207111 40.61233455 24.69331397 39.50129133 26.60864258 36.37060547 C28.18170884 32.55980484 28.47420414 29.25132422 28.51171875 25.1953125 C28.52966995 24.4713327 28.54762115 23.74735291 28.56611633 23.00143433 C28.61991138 20.70934723 28.65401402 18.41746459 28.6875 16.125 C28.72070049 14.56247173 28.75519266 12.99997034 28.79101562 11.4375 C28.87561923 7.62514831 28.94257559 3.812854 29 0 C30.65 0 32.3 0 34 0 C34.09951569 4.83799361 34.17177037 9.67538025 34.21972656 14.51416016 C34.23973571 16.1571695 34.26695213 17.80010859 34.30175781 19.44287109 C34.35075305 21.81625788 34.37307504 24.18869649 34.390625 26.5625 C34.41127014 27.28679199 34.43191528 28.01108398 34.45318604 28.75732422 C34.45555474 34.2463972 33.0199653 38.40446551 30 43 C24.88492148 47.86556249 20.5537288 48.35330453 13.7265625 48.28125 C8.64402178 47.75697646 6.02907547 45.11251403 2.6875 41.5 C-0.42928531 36.88254028 -0.13529432 32.38549202 -0.09765625 26.953125 C-0.0962413 26.18192322 -0.09482635 25.41072144 -0.09336853 24.6161499 C-0.08778534 22.16072662 -0.07523595 19.70539558 -0.0625 17.25 C-0.05748283 15.58203257 -0.0529203 13.91406371 -0.04882812 12.24609375 C-0.03782141 8.16402713 -0.02056836 4.08202919 0 0 Z " fill="#FA1817" transform="translate(436,81)"/>
<path d="M0 0 C1.98 0 3.96 0 6 0 C17.89438718 25.76376337 17.89438718 25.76376337 23 38 C27.185125 29.96727899 30.78110781 21.70912822 34.3125 13.375 C34.86755319 12.07149304 35.42288995 10.76810679 35.97851562 9.46484375 C37.322274 6.31127712 38.66221708 3.15610693 40 0 C41.98 0 43.96 0 46 0 C44.04031679 6.25932045 41.69905068 12.22210605 38.98828125 18.19140625 C38.61519333 19.02212143 38.24210541 19.85283661 37.85771179 20.70872498 C36.68002296 23.328495 35.49637698 25.94552149 34.3125 28.5625 C33.50676388 30.35203458 32.70142165 32.14174658 31.89648438 33.93164062 C29.93553305 38.28982268 27.96923914 42.64555689 26 47 C24.35 47 22.7 47 21 47 C15.83271549 37.07577416 11.11333924 26.96994608 6.5625 16.75 C6.03043945 15.55979248 5.49837891 14.36958496 4.95019531 13.14331055 C4.45229492 12.01836182 3.95439453 10.89341309 3.44140625 9.734375 C2.99482666 8.72600586 2.54824707 7.71763672 2.08813477 6.67871094 C1.18018409 4.4435674 0.49811498 2.35370704 0 0 Z " fill="#F41918" transform="translate(262,81)"/>
<path d="M0 0 C8.6516429 6.21143593 15.0504496 15.40744282 17 26 C18.07293473 38.8156093 15.67176698 48.64311457 8 59 C-0.20735488 67.8305059 -9.12784191 72.25595625 -21.07421875 73.2578125 C-32.39256318 73.65964721 -41.61147871 70.69393035 -50 63 C-59.26343418 54.02665248 -63.05789248 44.56077836 -63.3125 31.75 C-63.19464543 19.70526312 -58.57650081 11.82467065 -50.34375 3.28125 C-36.17748268 -9.81586507 -15.80271742 -10.57263656 0 0 Z M-54.2734375 10.63671875 C-58.3821597 16.26064846 -60.5200507 22.04073511 -61 29 C-61.07476562 29.79921875 -61.14953125 30.5984375 -61.2265625 31.421875 C-61.79101353 41.70082542 -58.44745056 50.60261157 -51.8125 58.4375 C-45.34543576 65.06624085 -37.27772277 70.47036582 -27.8515625 71.265625 C-15.84587419 71.20748607 -5.9019804 69.23367512 3.33984375 60.88671875 C11.3136305 52.28928388 15.61749458 42.58435164 15.30859375 30.7734375 C13.96567482 18.70416608 8.91562941 9.98782647 -0.1875 2.1875 C-18.41447927 -11.09656964 -40.43784676 -5.76203919 -54.2734375 10.63671875 Z " fill="#E71918" transform="translate(99,71)"/>
<path d="M0 0 C3.77062132 2.07014504 7.005306 4.12142833 9 8 C9.54819106 13.02508472 9.0345498 15.9539336 6 20 C3.71369108 22.72211561 2.15213008 23.47774644 -1.375 23.875 C-4.42871185 24.10799425 -5.94973445 24.0185764 -8.875 22.9375 C-12.58585523 19.55407318 -13.85281639 16.39824426 -14.375 11.4375 C-13.96627411 7.69084602 -13.35176439 5.91943166 -11 3 C-7.33060635 0.12398876 -4.62619262 -0.66088466 0 0 Z " fill="#2D2525" transform="translate(101,92)"/>
<path d="M0 0 C3.24268686 2.64534981 4.80645745 4.58068793 5.375 8.75 C4.85727342 13.23696374 3.30351741 14.97763301 0 18 C-3.4375 19.125 -3.4375 19.125 -7 19 C-12.46835443 16.06329114 -12.46835443 16.06329114 -14 13 C-14.70153846 5.86769231 -14.70153846 5.86769231 -11.625 2.0625 C-7.31856558 -1.32112704 -5.37989959 -1.20583956 0 0 Z " fill="#2A2323" transform="translate(58,95)"/>
<path d="M0 0 C3.13836313 2.02685952 4.65870267 3.45297192 5.4765625 7.16015625 C5.74267565 11.35493981 5.33198013 13.49165543 3 17.0625 C-0.32424808 19.20941022 -2.18042563 19.75226702 -6.06640625 19.48046875 C-9.54565017 18.61592935 -10.98608141 16.86830829 -13 14 C-14.1348141 10.02815066 -14.43723824 7.98378603 -12.75 4.1875 C-9.21496789 -0.23129014 -5.39728515 -0.98705215 0 0 Z " fill="#2A2424" transform="translate(80,117)"/>
<path d="M0 0 C3.13836313 2.02685952 4.65870267 3.45297192 5.4765625 7.16015625 C5.74267565 11.35493981 5.33198013 13.49165543 3 17.0625 C-0.32424808 19.20941022 -2.18042563 19.75226702 -6.06640625 19.48046875 C-9.54565017 18.61592935 -10.98608141 16.86830829 -13 14 C-14.1348141 10.02815066 -14.43723824 7.98378603 -12.75 4.1875 C-9.21496789 -0.23129014 -5.39728515 -0.98705215 0 0 Z " fill="#2B2525" transform="translate(80,72)"/>
<path d="M0 0 C1.98 0 3.96 0 6 0 C6 15.51 6 31.02 6 47 C4.02 47 2.04 47 0 47 C0 31.49 0 15.98 0 0 Z " fill="#F21918" transform="translate(478,81)"/>
<path d="M0 0 C1.98 0 3.96 0 6 0 C6 15.51 6 31.02 6 47 C4.02 47 2.04 47 0 47 C0 31.49 0 15.98 0 0 Z " fill="#F11918" transform="translate(314,81)"/>
<path d="M0 0 C0.7425 0.556875 1.485 1.11375 2.25 1.6875 C2.8275 2.079375 3.405 2.47125 4 2.875 C6.06426679 5.86818685 6.36125711 9.1411796 6.25 12.6875 C4.56159746 16.8147062 2.06281825 19.39980905 -1.75 21.6875 C-5.70568707 22.40963354 -8.8387349 22.05200604 -12.5625 20.5625 C-16.15037194 17.48718119 -17.51150084 14.32292281 -18.1875 9.6875 C-17.53333612 5.20180485 -15.55755711 2.05875022 -11.9375 -0.6875 C-7.63458583 -1.91690405 -4.05527338 -1.93547139 0 0 Z M-14.75 5.6875 C-15.8848141 9.65934934 -16.18723824 11.70371397 -14.5 15.5 C-11.80778578 18.86526777 -10.18097639 19.63884137 -5.875 20.125 C-2.57407648 20.01537523 -1.6764455 19.63999605 1.25 17.75 C3.58198013 14.17915543 3.99267565 12.04243981 3.7265625 7.84765625 C2.90870267 4.14047192 1.38836313 2.71435952 -1.75 0.6875 C-7.62672918 -0.74613756 -11.22050358 0.66064147 -14.75 5.6875 Z " fill="#E01918" transform="translate(81.75,116.3125)"/>
<path d="M0 0 C3.77062132 2.07014504 7.005306 4.12142833 9 8 C9.4065857 11.72703559 9.32666609 14.219631 7.875 17.6875 C4.79929923 21.48086428 1.82797655 23.73886049 -3.0625 24.4375 C-7.48548211 23.77875798 -9.92334662 22.26228328 -12.8125 18.875 C-14.47282955 14.85525477 -14.84725973 11.28293682 -14 7 C-10.06486257 2.00131192 -6.46300967 -0.76035408 0 0 Z M-11 6 C-12.6143926 9.22878519 -12.5818272 12.50903682 -12 16 C-9.47665654 19.59385281 -7.72859825 20.76154966 -3.5625 22.125 C1.34565097 21.95278418 2.61507864 20.46551473 6 17 C7.41000664 14.17998673 7.24548451 12.12992745 7 9 C5.70685228 6.15507503 4.68842011 4.48189408 2.125 2.6875 C-3.5084074 0.86492702 -6.39953062 2.44509184 -11 6 Z " fill="#E31918" transform="translate(56,92)"/>
<path d="M0 0 C5.0881295 3.81609712 5.0881295 3.81609712 5.71875 7.2109375 C5.80344765 14.93959777 5.80344765 14.93959777 2.9375 18.8125 C-1.33333136 21.79214979 -4.61948066 22.04132892 -9.75 21.6875 C-13.24663903 20.25705676 -14.50953283 19.06063872 -16.5625 15.875 C-17.85627958 12.40222323 -18.28441905 10.35208779 -17.75 6.6875 C-16.11564595 3.65227105 -14.694447 1.40397703 -11.9375 -0.6875 C-7.63458583 -1.91690405 -4.05527338 -1.93547139 0 0 Z M-14.75 5.6875 C-15.8848141 9.65934934 -16.18723824 11.70371397 -14.5 15.5 C-11.80778578 18.86526777 -10.18097639 19.63884137 -5.875 20.125 C-2.57407648 20.01537523 -1.6764455 19.63999605 1.25 17.75 C3.58198013 14.17915543 3.99267565 12.04243981 3.7265625 7.84765625 C2.90870267 4.14047192 1.38836313 2.71435952 -1.75 0.6875 C-7.62672918 -0.74613756 -11.22050358 0.66064147 -14.75 5.6875 Z " fill="#DE1919" transform="translate(81.75,71.3125)"/>
<path d="M0 0 C3.77062132 2.07014504 7.005306 4.12142833 9 8 C9.54819106 13.02508472 9.0345498 15.9539336 6 20 C3.71369108 22.72211561 2.15213008 23.47774644 -1.375 23.875 C-4.42871185 24.10799425 -5.94973445 24.0185764 -8.875 22.9375 C-12.58585523 19.55407318 -13.85281639 16.39824426 -14.375 11.4375 C-13.96627411 7.69084602 -13.35176439 5.91943166 -11 3 C-7.33060635 0.12398876 -4.62619262 -0.66088466 0 0 Z M-11 6 C-12.53214888 9.06429776 -12.22938548 11.6165642 -12 15 C-10.74360091 17.82689795 -9.67448232 19.47004961 -7.25 21.375 C-3.85887913 22.31697802 -1.39008797 21.84752199 2 21 C5.52321058 18.12580189 6.86190534 16.21983615 7.375 11.6875 C7.30042978 7.91525814 7.30042978 7.91525814 4.9375 5.125 C-1.13876852 0.7294015 -5.35118214 1.29265179 -11 6 Z " fill="#E71918" transform="translate(101,92)"/>
<path d="M0 0 C0.33 0 0.66 0 1 0 C1.78279267 7.98448519 1.78279267 7.98448519 -1.3125 12 C-5.58672907 15.18082164 -8.79715313 15.09816692 -14 15 C-14.33 14.34 -14.66 13.68 -15 13 C-14.09507813 12.96132812 -14.09507813 12.96132812 -13.171875 12.921875 C-8.09722585 12.56485152 -8.09722585 12.56485152 -3.5625 10.4375 C-1.39330514 7.05355602 -0.78758075 3.93790376 0 0 Z " fill="#F11817" transform="translate(86,78)"/>
<path d="M0 0 C0.99 0.33 1.98 0.66 3 1 C2.65066406 1.64066406 2.30132812 2.28132813 1.94140625 2.94140625 C-0.74576954 8.04932398 -2.6232456 12.22309915 -3 18 C-3.99 17.67 -4.98 17.34 -6 17 C-5.57664615 10.50857435 -3.08900201 5.66507011 0 0 Z " fill="#CF1A19" transform="translate(42,82)"/>
<path d="M0 0 C0.33 0 0.66 0 1 0 C1.3690205 14.78132118 1.3690205 14.78132118 -1 21 C-1.66 20.34 -2.32 19.68 -3 19 C-2.79296875 16.171875 -2.79296875 16.171875 -2.1875 12.75 C-1.99542969 11.63109375 -1.80335937 10.5121875 -1.60546875 9.359375 C-1.40566406 8.25078125 -1.20585938 7.1421875 -1 6 C-0.66444589 4.0003714 -0.33038385 2.00048935 0 0 Z " fill="#D21A1A" transform="translate(115,97)"/>
<path d="M0 0 C5.445 1.485 5.445 1.485 11 3 C10.67 3.99 10.34 4.98 10 6 C8.53932801 5.54917531 7.08151968 5.08906463 5.625 4.625 C4.81289063 4.36976563 4.00078125 4.11453125 3.1640625 3.8515625 C1 3 1 3 -1 1 C-0.67 0.67 -0.34 0.34 0 0 Z " fill="#D11A19" transform="translate(55,144)"/>
<path d="M0 0 C0.66 0.66 1.32 1.32 2 2 C-0.56893838 3.28446919 -2.76576337 3.32977144 -5.625 3.5625 C-6.62789063 3.64628906 -7.63078125 3.73007813 -8.6640625 3.81640625 C-9.43492188 3.87699219 -10.20578125 3.93757813 -11 4 C-7.30497796 0.5223322 -5.10500447 -0.68066726 0 0 Z " fill="#D81A19" transform="translate(101,92)"/>
<path d="M0 0 C-0.33 0.66 -0.66 1.32 -1 2 C-8.3625 3.425 -8.3625 3.425 -12 1 C-8.0186217 -0.3271261 -4.14954773 -0.06915913 0 0 Z " fill="#D51A19" transform="translate(76,64)"/>
<path d="M0 0 C5.75 1.75 5.75 1.75 8 4 C6 5 6 5 2.875 4.0625 C1.92625 3.711875 0.9775 3.36125 0 3 C0 2.01 0 1.02 0 0 Z " fill="#D81A19" transform="translate(86,65)"/>
</svg>
