<?xml version="1.0" encoding="UTF-8"?>
<svg version="1.1" xmlns="http://www.w3.org/2000/svg" width="622" height="510">
<path d="M0 0 C205.26 0 410.52 0 622 0 C622 168.3 622 336.6 622 510 C416.74 510 211.48 510 0 510 C0 341.7 0 173.4 0 0 Z " fill="#DDDDDD" transform="translate(0,0)"/>
<path d="M0 0 C24.93910032 20.93943329 42.83015276 48.49126861 46.8984375 81.43359375 C48.72897673 118.50201313 41.71272723 152.13933772 16.14013672 180.375 C7.32591362 189.91563276 -1.79296524 198.00487351 -13.1015625 204.43359375 C-14.05216553 204.9740332 -14.05216553 204.9740332 -15.02197266 205.52539062 C-42.17290325 220.6190972 -73.75505539 226.17879689 -104.1015625 218.43359375 C-105.26300781 218.15515625 -106.42445313 217.87671875 -107.62109375 217.58984375 C-128.62337257 212.12123692 -146.72493531 201.63423665 -162.1015625 186.43359375 C-162.95105469 185.65628906 -163.80054688 184.87898437 -164.67578125 184.078125 C-185.2658789 164.78096912 -197.75931857 135.70091704 -199.30688477 107.72143555 C-199.40335481 103.95663667 -199.42376856 100.19954508 -199.4140625 96.43359375 C-199.43017578 95.18320312 -199.44628906 93.9328125 -199.46289062 92.64453125 C-199.46742542 83.88331373 -198.24412594 75.91473545 -196.1015625 67.43359375 C-195.81168457 66.23734375 -195.52180664 65.04109375 -195.22314453 63.80859375 C-187.79428609 33.96762706 -166.04854523 7.33431813 -140.04736328 -8.42138672 C-129.52037568 -14.61606324 -118.96702246 -19.09921589 -107.10839844 -22.0625 C-105.26793105 -22.52463196 -103.43792239 -23.0279082 -101.609375 -23.53515625 C-67.25697647 -31.94798854 -27.48588697 -21.72514627 0 0 Z " fill="#62777F" transform="translate(404.1015625,174.56640625)"/>
<path d="M0 0 C1.28583984 0.00580078 1.28583984 0.00580078 2.59765625 0.01171875 C4.9375 0.3125 4.9375 0.3125 7.9375 2.3125 C8.30664349 4.9792881 8.30664349 4.9792881 8.29826355 8.43740845 C8.30238754 9.74435165 8.30651154 11.05129486 8.3107605 12.39784241 C8.30014229 13.85458578 8.28923785 15.31132709 8.27807617 16.76806641 C8.27723035 18.29543542 8.27770416 19.82280565 8.27940369 21.35017395 C8.28026682 25.50498781 8.26258981 29.6595435 8.24168181 33.8142972 C8.22296787 38.1531523 8.22116875 42.49201287 8.21760559 46.8309021 C8.20826955 55.05093878 8.18363475 63.27085622 8.15355712 71.49084032 C8.12006153 80.84740287 8.1035393 90.20397103 8.08847082 99.56057858 C8.0570865 118.81128674 8.0042958 138.0618838 7.9375 157.3125 C7.6075 157.3125 7.2775 157.3125 6.9375 157.3125 C4.32534848 136.49356696 1.98625548 115.66383517 -0.07125854 94.78308105 C-0.80875037 87.29974037 -1.558018 79.81758294 -2.3125 72.3359375 C-2.38674635 71.59932388 -2.4609927 70.86271027 -2.53748894 70.10377502 C-4.062655 55.01084129 -5.77398611 39.94188574 -7.64038086 24.88720703 C-9.63251408 8.69531335 -9.63251408 8.69531335 -9.0625 3.3125 C-6.45432007 0.1475856 -3.97510628 -0.07794326 0 0 Z " fill="#DADBDB" transform="translate(319.0625,193.6875)"/>
<path d="M0 0 C3.06275016 0.08864689 5.3572186 0.36341558 8.3125 1.25 C10.74948051 3.93067856 10.45663874 5.79161145 10.37890625 9.30102539 C9.99329088 15.3680734 9.19857844 21.39295677 8.45089722 27.42388916 C6.60411039 42.37630818 4.94837077 57.34627139 3.4375 72.3359375 C3.36270479 73.0776268 3.28790958 73.8193161 3.21084785 74.58348083 C2.46098235 82.02972917 1.7191251 89.47675124 0.98524189 96.92459106 C-1.00468616 117.09064532 -3.28974248 137.20604004 -5.8125 157.3125 C-6.1425 157.3125 -6.4725 157.3125 -6.8125 157.3125 C-6.85916868 137.1375616 -6.89446361 116.96263411 -6.91612434 96.78765297 C-6.92644799 87.42059147 -6.94052903 78.05356345 -6.96337891 68.68652344 C-6.98327955 60.52461042 -6.99620852 52.36272165 -7.00067699 44.20078504 C-7.00329003 39.87693556 -7.00945423 35.55315546 -7.02396011 31.22932816 C-7.03749157 27.16317251 -7.04173169 23.09711512 -7.03871536 19.0309391 C-7.03926752 17.53532058 -7.04327133 16.03969892 -7.05091095 14.54409981 C-7.06080232 12.50855993 -7.0572911 10.47296785 -7.05300903 8.43740845 C-7.05485262 7.29622873 -7.05669621 6.15504902 -7.05859566 4.9792881 C-6.61553336 0.178093 -4.25956434 0.01915846 0 0 Z " fill="#DADBDB" transform="translate(335.8125,193.6875)"/>
<path d="M0 0 C2.88753773 0.11592305 4.50437294 0.50433589 7.25 1.625 C10.44141161 6.15474552 8.93165432 11.07394566 8.1875 16.375 C7.44459423 20.06636403 6.49171161 23.68103469 5.5 27.3125 C3.14792116 36.30833188 1.08964644 45.323253 -0.75 54.4375 C-2.80836401 64.61538097 -4.99572818 74.75276256 -7.3125 84.875 C-9.65509521 95.12417617 -11.88955544 105.38796452 -14 115.6875 C-14.24588867 116.88479736 -14.49177734 118.08209473 -14.74511719 119.31567383 C-14.98262695 120.47220459 -15.22013672 121.62873535 -15.46484375 122.8203125 C-16.6459996 128.57166504 -17.82924714 134.32206477 -19.0625 140.0625 C-19.21356201 140.79315674 -19.36462402 141.52381348 -19.52026367 142.27661133 C-20.58165218 147.14415218 -20.58165218 147.14415218 -22.8125 149.375 C-22.19246083 140.07538891 -21.18118287 130.868297 -20 121.625 C-18.5217455 109.86037415 -17.2705052 98.0893909 -16.17318726 86.28344727 C-14.64489226 69.85551282 -12.79358255 53.48917458 -10.6875 37.125 C-10.55925842 36.12603699 -10.43101685 35.12707397 -10.29888916 34.09783936 C-9.59452684 28.63256184 -8.87459593 23.16969656 -8.13024902 17.7097168 C-7.92626093 16.21087841 -7.72463852 14.71171507 -7.52600098 13.2121582 C-7.27859017 11.35380807 -7.01873984 9.49712553 -6.7578125 7.640625 C-6.62133301 6.65352539 -6.48485352 5.66642578 -6.34423828 4.64941406 C-5.39121041 0.57301019 -4.09978102 0.40325715 0 0 Z " fill="#DBDBDB" transform="translate(354.8125,198.625)"/>
<path d="M0 0 C2.44778715 2.44778715 2.45213015 3.61635455 2.94726562 6.99853516 C3.18129089 8.57276749 3.18129089 8.57276749 3.42004395 10.17880249 C3.58049194 11.32893829 3.74093994 12.4790741 3.90625 13.6640625 C4.07862183 14.8660025 4.25099365 16.0679425 4.42858887 17.30630493 C6.34076912 30.94226361 7.83007358 44.62456137 9.28097916 58.31570053 C9.65466126 61.8291714 10.03507825 65.34191345 10.41479492 68.85473633 C11.28354009 76.90241444 12.14317352 84.95104432 13 93 C13.11555237 94.08541077 13.23110474 95.17082153 13.35015869 96.28912354 C13.56011089 98.26155151 13.77002351 100.23398369 13.97988892 102.2064209 C14.3424 105.60992293 14.7065684 109.01324675 15.07080078 112.41656494 C15.30265157 114.594967 15.53055469 116.77375147 15.7578125 118.95263672 C16.51156681 126.04726108 17.42180231 133.07474385 18.62182617 140.10864258 C19.01373499 143.10501193 19.06416077 145.98164191 19 149 C16.29144223 146.29144223 16.15540142 144.04094193 15.3359375 140.30078125 C15.18307281 139.61114288 15.03020813 138.92150452 14.87271118 138.21096802 C14.36587642 135.91307308 13.87029047 133.61290865 13.375 131.3125 C13.01990269 129.68945319 12.66442727 128.06648907 12.30859375 126.44360352 C9.58954335 113.98189725 7.03524859 101.48747845 4.50366211 88.98660278 C2.11457158 77.20386957 -0.42195788 65.46469646 -3.125 53.75 C-3.29056396 53.03187134 -3.45612793 52.31374268 -3.62670898 51.57385254 C-4.43557298 48.06844367 -5.24690615 44.56361167 -6.05957031 41.05908203 C-7.5555614 34.60541906 -9.03699536 28.14873595 -10.5 21.6875 C-10.75539551 20.58438477 -11.01079102 19.48126953 -11.27392578 18.34472656 C-13.51294973 8.40994284 -13.51294973 8.40994284 -13 4 C-9.10999222 -0.61938424 -5.65019266 -0.55575666 0 0 Z " fill="#DBDBDB" transform="translate(305,199)"/>
<path d="M0 0 C4.58421625 8.75892436 8.69517812 17.35246247 11.86328125 26.73046875 C12.91220792 29.74748463 14.09641875 32.63707301 15.375 35.5625 C20.66151554 48.04732128 24.58212766 61.10539414 28.0859375 74.18774414 C29.92482145 80.9574342 32.1483904 87.57726628 34.40087891 94.21875 C36.33679254 99.94879893 38.16991041 105.69696934 39.875 111.5 C40.17954102 112.53169312 40.17954102 112.53169312 40.49023438 113.58422852 C41.49028361 117.03379281 42.36101021 120.46516287 43 124 C40.10920046 121.52269523 38.97695424 118.9978181 37.57421875 115.48828125 C37.1145874 114.35414795 36.65495605 113.22001465 36.18139648 112.05151367 C35.93880096 111.44391205 35.69620544 110.83631042 35.44625854 110.21029663 C34.13356041 106.92699378 32.79268367 103.65522843 31.453125 100.3828125 C31.17303085 99.69742905 30.89293671 99.01204559 30.60435486 98.30589294 C25.57555879 86.04169631 20.18999714 73.92683135 14.80664062 61.81506348 C14.0430903 60.09695971 13.28125921 58.37809219 12.51953125 56.65917969 C8.39332922 47.38100411 4.19729811 38.18033799 -0.5703125 29.2109375 C-1.17157959 28.07970459 -1.77284668 26.94847168 -2.39233398 25.78295898 C-3.55947944 23.60787478 -4.74057806 21.44020051 -5.93774414 19.28149414 C-10.949432 9.99977199 -10.949432 9.99977199 -10 4 C-7.13779645 -0.29330533 -4.90222888 -0.16788455 0 0 Z " fill="#D9DADA" transform="translate(274,219)"/>
<path d="M0 0 C3.17324369 5.55555878 4.62102648 11.38885835 6.1875 17.5625 C6.48648193 18.7285376 6.78546387 19.8945752 7.09350586 21.09594727 C11.48539165 38.53988713 15.09395032 56.16849349 18.79199219 73.76953125 C19.50440658 77.15944434 20.21958435 80.54874782 20.9375 83.9375 C21.16526123 85.01298096 21.39302246 86.08846191 21.62768555 87.1965332 C24.25213768 99.42350773 27.17801721 111.58059728 30.10522461 123.73803711 C30.29701797 124.53764359 30.48881134 125.33725006 30.68641663 126.16108704 C31.04924433 127.67271471 31.41401514 129.18387769 31.7809906 130.69450378 C33 135.77607891 33 135.77607891 33 138 C32.34 138 31.68 138 31 138 C30.82460693 137.39341553 30.64921387 136.78683105 30.46850586 136.16186523 C24.56085934 115.75589345 18.55426979 95.40846986 11.76757812 75.27514648 C10.12209759 70.39042686 8.518926 65.50772829 7.0625 60.5625 C2.46205688 45.38306432 -3.08443994 30.38071811 -9.61230469 15.92529297 C-12.69314237 8.95162609 -12.69314237 8.95162609 -12 5 C-8.10914359 0.83122528 -5.88270107 -0.70032156 0 0 Z " fill="#DADADB" transform="translate(288,207)"/>
<path d="M0 0 C3.1875 0.3125 3.1875 0.3125 5.5625 1.875 C7.80361479 5.23667219 7.51376708 7.31094545 7.1875 11.3125 C6.18312229 13.77948705 5.17462078 15.91107152 3.8828125 18.2109375 C3.15575009 19.56944322 2.42895651 20.92809285 1.70239258 22.28686523 C1.31371002 23.00123749 0.92502747 23.71560974 0.52456665 24.45162964 C-6.9654627 38.26830765 -13.73610475 52.33931546 -20 66.75 C-20.36913513 67.59794128 -20.73827026 68.44588257 -21.11859131 69.31951904 C-25.23611077 78.80268034 -29.25083016 88.32742449 -33.20703125 97.87890625 C-33.55694626 98.72303574 -33.90686127 99.56716522 -34.26737976 100.43687439 C-35.93114986 104.45589819 -37.58465692 108.47863373 -39.21948242 112.50952148 C-39.8025503 113.93343972 -40.38563829 115.35734971 -40.96875 116.78125 C-41.22932693 117.43327896 -41.48990387 118.08530792 -41.75837708 118.75709534 C-43.58663574 123.19956787 -43.58663574 123.19956787 -45.8125 124.3125 C-43.92608651 116.27265884 -41.63636644 108.48903186 -38.9375 100.6875 C-36.18589047 92.60448965 -33.6730594 84.51622292 -31.46533203 76.26928711 C-30.17015553 71.47207219 -28.6207352 66.8638459 -26.84765625 62.2265625 C-25.24400936 57.71214522 -23.95094939 53.10943178 -22.65039062 48.49975586 C-21.2715952 43.66771497 -19.64095037 38.99197191 -17.8125 34.3125 C-17.37550781 33.18070313 -16.93851562 32.04890625 -16.48828125 30.8828125 C-13.63383653 23.66900093 -10.64226007 16.53110083 -7.5 9.4375 C-7.15042236 8.64617676 -6.80084473 7.85485352 -6.44067383 7.03955078 C-3.46786434 0.38531826 -3.46786434 0.38531826 0 0 Z " fill="#DADBDB" transform="translate(384.8125,218.6875)"/>
<path d="M0 0 C3.36704285 -0.2295711 5.41370268 -0.33943529 8.375 1.375 C8.91125 1.91125 9.4475 2.4475 10 3 C10 3.66 10 4.32 10 5 C10.66 5 11.32 5 12 5 C11.44321663 10.0994351 10.27213916 14.3489019 8.33984375 19.09375 C8.07417603 19.75433411 7.8085083 20.41491821 7.53479004 21.09552002 C6.96790395 22.50449443 6.3978692 23.91220552 5.82492065 25.31872559 C4.32233047 29.01208286 2.84779884 32.71655577 1.375 36.421875 C1.08233749 37.15762756 0.78967499 37.89338013 0.48814392 38.65142822 C-5.58765773 54.00030413 -10.81705391 69.68206201 -15.2890625 85.5703125 C-15.775722 87.29696513 -16.26271397 89.02352408 -16.75 90.75 C-16.99806396 91.62978516 -17.24612793 92.50957031 -17.50170898 93.41601562 C-19.87558704 101.74271283 -22.50535278 109.98085377 -25.19628906 118.20996094 C-27.32813796 124.75977208 -29.25059461 131.33770158 -31 138 C-31.66 138 -32.32 138 -33 138 C-30.75551489 126.93092436 -28.29433399 115.92693902 -25.6875 104.9375 C-23.34963592 95.06644934 -21.19639057 85.17909506 -19.21902466 75.22866821 C-16.1146499 59.64154221 -12.50651676 44.19229571 -8.75 28.75 C-8.487565 27.66117523 -8.22513 26.57235046 -7.95474243 25.45053101 C-7.20195388 22.33474837 -6.4387393 19.22171955 -5.671875 16.109375 C-5.33469704 14.7100045 -5.33469704 14.7100045 -4.9907074 13.28236389 C-3.79953948 8.51028033 -2.43349778 4.32324696 0 0 Z " fill="#DADBDB" transform="translate(368,207)"/>
<path d="M0 0 C0.598125 0.9075 1.19625 1.815 1.8125 2.75 C2.245625 3.389375 2.67875 4.02875 3.125 4.6875 C4.09606741 7.60070222 4.1797328 9.68972665 3.8125 12.75 C0.04230941 20.29038119 -6.80663635 22.73740259 -14.1875 25.75 C-14.07291307 27.18836751 -13.94540884 28.62570966 -13.8125 30.0625 C-13.74289062 30.86300781 -13.67328125 31.66351563 -13.6015625 32.48828125 C-13.29185574 35.02224441 -13.29185574 35.02224441 -11.1875 37.75 C-9.7025 38.245 -9.7025 38.245 -8.1875 38.75 C-8.5175 39.74 -8.8475 40.73 -9.1875 41.75 C-13.9175622 43.6121508 -19.14992242 44.00833731 -24.1875 43.75 C-23.68536987 42.8993396 -23.68536987 42.8993396 -23.1730957 42.03149414 C-20.21620085 35.18676231 -24.01435531 24.81625355 -25.5 17.8125 C-25.70044922 16.78576172 -25.90089844 15.75902344 -26.10742188 14.70117188 C-26.31560547 13.71826172 -26.52378906 12.73535156 -26.73828125 11.72265625 C-26.92044189 10.83843994 -27.10260254 9.95422363 -27.2902832 9.04321289 C-28.38267527 6.25114794 -29.761783 5.41956075 -32.1875 3.75 C-32.1875 3.09 -32.1875 2.43 -32.1875 1.75 C-22.86833502 -1.60997105 -8.73873324 -6.16851758 0 0 Z " fill="#0A0A0A" transform="translate(379.1875,435.25)"/>
<path d="M0 0 C21.66592703 0.70919565 21.66592703 0.70919565 28.34765625 7.32421875 C30.14793501 10.23956378 30.48995663 11.68172997 30.375 15.0625 C30.36210937 15.89910156 30.34921875 16.73570313 30.3359375 17.59765625 C29.80371326 21.40367846 28.87821353 23.2749443 25.89453125 25.73828125 C22.12512195 27.3813571 18.71489606 27.32786501 14.6875 27.1875 C13.57665039 27.16719727 13.57665039 27.16719727 12.44335938 27.14648438 C10.62858925 27.11135979 8.81419712 27.05755972 7 27 C6.17979582 29.88711871 5.83818379 32.50013311 5.8125 35.5 C5.79123047 36.62921875 5.79123047 36.62921875 5.76953125 37.78125 C6.02582722 40.24864173 6.77154847 41.86356256 8 44 C2.43109483 43.52013969 -2.67067568 42.70084819 -8 41 C-7.67 40.01 -7.34 39.02 -7 38 C-4.9375 37.3125 -4.9375 37.3125 -3 37 C-2.87753906 36.05253906 -2.75507813 35.10507813 -2.62890625 34.12890625 C-1.82117375 28.46623128 -0.56736071 22.88629426 0.62695312 17.29492188 C2.65949978 8.40931507 2.65949978 8.40931507 0 0 Z " fill="#090909" transform="translate(358,63)"/>
<path d="M0 0 C6.416208 2.49927578 6.416208 2.49927578 8 5 C9.3718325 12.37799657 6.06505174 16.80337311 2.00610352 22.74389648 C1.58740997 23.3456369 1.16871643 23.94737732 0.73733521 24.56735229 C-1.48759995 27.76849453 -3.64876269 31.01252077 -5.8203125 34.25 C-6.26126755 34.90379135 -6.7022226 35.5575827 -7.15653992 36.23118591 C-22.946252 59.70810746 -35.98377932 84.92166778 -49 110 C-49.66 109.67 -50.32 109.34 -51 109 C-49.94017276 106.39471864 -48.87718427 103.79079631 -47.8125 101.1875 C-47.52052734 100.46884766 -47.22855469 99.75019531 -46.92773438 99.00976562 C-45.24242903 94.89617085 -43.4823442 90.82986787 -41.62890625 86.7890625 C-39.20378272 81.49641607 -36.91916389 76.15092299 -34.65014648 70.78979492 C-26.59561805 51.76553255 -26.59561805 51.76553255 -21.83203125 42.59765625 C-19.79859145 38.66865662 -17.93823779 34.65989549 -16.05419922 30.65771484 C-11.11478291 20.17643207 -5.87153444 9.98885736 0 0 Z " fill="#D8D9DA" transform="translate(394,230)"/>
<path d="M0 0 C12.22396979 20.96770347 22.76298905 43.01375597 32.0703125 65.421875 C33.43372448 68.69881037 34.86852931 71.93380507 36.34765625 75.16015625 C39.4563552 81.95108416 42.38204516 88.81849968 45.3125 95.6875 C45.86772409 96.98637705 46.42306198 98.28520547 46.97851562 99.58398438 C48.3201244 102.7221823 49.66059554 105.86086078 51 109 C50.01 109.495 50.01 109.495 49 110 C45.32511593 103.19755502 41.655828 96.40359842 38.28833008 89.44262695 C28.01373662 68.29196022 15.49245744 47.61042031 2.07421875 28.3046875 C1.42582031 27.36455811 0.77742188 26.42442871 0.109375 25.45581055 C-1.1380617 23.65897559 -2.40156734 21.87315129 -3.68359375 20.10083008 C-7.35671395 14.81076127 -9.02404557 11.47620543 -8 5 C-6.16935021 2.23675503 -3.443622 0 0 0 Z " fill="#D8D9DA" transform="translate(262,230)"/>
<path d="M0 0 C3.48961981 3.02433717 4.88132949 5.52531798 6 10 C6 11.32 6 12.64 6 14 C4.78763672 14.18175781 4.78763672 14.18175781 3.55078125 14.3671875 C2.48214844 14.53476562 1.41351563 14.70234375 0.3125 14.875 C-0.74324219 15.03742188 -1.79898438 15.19984375 -2.88671875 15.3671875 C-5.79794914 15.95893069 -8.28955607 16.8031806 -11 18 C-11 18.66 -11 19.32 -11 20 C-3.48641103 23.61478507 2.61214729 25.83507383 11 25 C13.15305957 28.85756507 14.39253254 31.55129785 14 36 C9.11542165 34.15371901 4.62485255 31.71766241 0.03515625 29.2421875 C-3.32445205 27.86721267 -5.41169092 27.45061751 -9 28 C-10.96609347 29.63171709 -10.96609347 29.63171709 -12.375 32.0625 C-12.95121094 32.95839844 -13.52742188 33.85429687 -14.12109375 34.77734375 C-17.60483606 40.75257743 -20.84176801 46.84760002 -24 53 C-26.63843838 50.49203385 -27.98500845 48.55247044 -29 45 C-28.59044194 40.96942857 -27.48082063 39.00804185 -24.6875 36.125 C-20.49733126 31.56485743 -17.36278925 27.14591229 -16 21 C-21.90309128 21.99696653 -26.14274176 23.29923182 -31 27 C-31.99 27.66 -32.98 28.32 -34 29 C-36.53309233 24.35796103 -38.46515599 20.34844008 -39 15 C-37.15341797 15.39638672 -37.15341797 15.39638672 -35.26953125 15.80078125 C-28.7079205 16.52670842 -23.55476023 13.84593367 -17.6875 11.1875 C-16.61693359 10.72279297 -15.54636719 10.25808594 -14.44335938 9.77929688 C-11.61595456 8.5452949 -8.80081832 7.29312468 -6 6 C-5.25596924 5.66395752 -4.51193848 5.32791504 -3.74536133 4.98168945 C-1.49606034 3.71655597 -0.94137851 2.35344628 0 0 Z " fill="#080808" transform="translate(173,320)"/>
<path d="M0 0 C0.66 0 1.32 0 2 0 C2.48210937 1.12019531 2.96421875 2.24039063 3.4609375 3.39453125 C4.0988047 4.86725405 4.73683401 6.33990665 5.375 7.8125 C5.69210938 8.55048828 6.00921875 9.28847656 6.3359375 10.04882812 C6.8 11.11713867 6.8 11.11713867 7.2734375 12.20703125 C7.55622559 12.8616333 7.83901367 13.51623535 8.13037109 14.19067383 C9.07472913 16.26322799 9.07472913 16.26322799 11 19 C21.17078873 18.46469533 30.64243339 14.83945958 40 11 C39.10164835 18.78571429 39.10164835 18.78571429 37 22 C35 23 35 23 31.0625 23.3125 C25.35188644 23.87054041 20.29205399 25.87328671 15 28 C15.72268235 31.2985139 15.72268235 31.2985139 19.0625 32.6875 C23.13221572 34.30863157 26.65961049 34.22844155 31 34 C30.53328373 39.41390868 29.75702189 43.20517932 27 48 C26.34 48 25.68 48 25 48 C24.56776123 47.22495117 24.13552246 46.44990234 23.69018555 45.65136719 C21.69009787 42.51386146 20.38559316 41.89497856 16.95703125 40.578125 C15.96509766 40.19269531 14.97316406 39.80726563 13.95117188 39.41015625 C12.91541016 39.02730469 11.87964844 38.64445312 10.8125 38.25 C9.79607422 37.85167969 8.77964844 37.45335937 7.73242188 37.04296875 C1.04526712 34.49589238 -4.81125228 33 -12 33 C-11.50269348 28.02693484 -10.44697666 24.36200187 -8 20 C-5 21 -5 21 -3.6875 22.375 C-0.07516368 25.85354608 4.17794591 27.13366486 9 28 C5.70057609 18.02079091 5.70057609 18.02079091 -1.25 10.625 C-1.8275 10.41875 -2.405 10.2125 -3 10 C-2.25 3.375 -2.25 3.375 0 0 Z " fill="#090909" transform="translate(134,182)"/>
<path d="M0 0 C18.29499141 3.69965382 38.39717346 28.70923379 49 43 C48.505 43.99 48.505 43.99 48 45 C47.41226807 44.55269531 46.82453613 44.10539062 46.21899414 43.64453125 C39.04191832 38.3773648 31.71463114 35.08995293 23.47851562 31.828125 C13.3530598 27.65603083 5.31802557 22.46555753 0.75 12.1875 C-0.21769613 8.07479145 -0.16812461 4.20311534 0 0 Z " fill="#DADBDB" transform="translate(242,278)"/>
<path d="M0 0 C0.99 0.33 1.98 0.66 3 1 C3.59091832 9.12512683 1.36155459 15.15748289 -3.5 21.6875 C-8.65737456 27.26824113 -16.09425997 29.770444 -22.94921875 32.68359375 C-24.32056041 33.26764741 -25.69165256 33.85228727 -27.0625 34.4375 C-27.73845215 34.7250415 -28.4144043 35.01258301 -29.11083984 35.30883789 C-35.16784968 37.94604795 -40.57424891 41.21806756 -46 45 C-39.00068356 30.1798511 -23.80193289 17.79091827 -11 8 C-10.22527344 7.40445312 -9.45054687 6.80890625 -8.65234375 6.1953125 C-5.81414498 4.04219619 -2.96511565 1.97674376 0 0 Z " fill="#DBDCDC" transform="translate(411,278)"/>
<path d="M0 0 C0.32269356 9.8421535 -0.45368756 20.51276033 -6 29 C-9.35735137 30.11911712 -11.88205386 30.11365586 -15.41796875 30.09765625 C-16.67158203 30.09443359 -17.92519531 30.09121094 -19.21679688 30.08789062 C-20.52712891 30.07951172 -21.83746094 30.07113281 -23.1875 30.0625 C-24.52278481 30.05748317 -25.85807141 30.05292059 -27.19335938 30.04882812 C-30.46228473 30.03702695 -33.73111991 30.02056297 -37 30 C-37 29.01 -37 28.02 -37 27 C-34.76171875 25.125 -34.76171875 25.125 -31.6875 23 C-27.12416566 19.7557916 -23.19954637 16.34820112 -19.3125 12.3125 C-7.39717742 0 -7.39717742 0 0 0 Z " fill="#DADBDB" transform="translate(380,318)"/>
<path d="M0 0 C9.98101316 1.17423684 17.91746648 10.73123558 24.5 17.625 C28.51646953 21.73778774 33.22310482 24.83782995 38 28 C37.67 28.66 37.34 29.32 37 30 C33.06731133 30.02473868 29.13465287 30.04287835 25.2019043 30.05493164 C23.20685232 30.06242729 21.21182214 30.07513345 19.21679688 30.08789062 C17.96318359 30.09111328 16.70957031 30.09433594 15.41796875 30.09765625 C14.26063232 30.10289307 13.1032959 30.10812988 11.91088867 30.11352539 C9 30 9 30 6 29 C1.2407879 19.5090857 -0.21353287 10.46311059 0 0 Z " fill="#DADBDB" transform="translate(276,318)"/>
<path d="M0 0 C0.99 0 1.98 0 3 0 C4.89428711 2.3605957 4.89428711 2.3605957 7.02734375 5.67578125 C7.41233032 6.26787888 7.79731689 6.8599765 8.19396973 7.47001648 C9.45224023 9.41099758 10.6950566 11.36135708 11.9375 13.3125 C12.80204355 14.65479455 13.66736297 15.99658969 14.53344727 17.33789062 C16.65729072 20.63273301 18.76848023 23.93546873 20.87597656 27.24078369 C22.40829378 29.63902322 23.95421398 32.02839485 25.5 34.41796875 C37.2824303 52.72801383 47.65484456 71.8537008 58 91 C57.01 91.495 57.01 91.495 56 92 C55.67427002 91.46334717 55.34854004 90.92669434 55.01293945 90.3737793 C39.62121327 65.08602962 22.94226297 41.1577654 3.31640625 18.96484375 C2.49011719 18.00707031 1.66382813 17.04929687 0.8125 16.0625 C0.07644531 15.22847656 -0.65960938 14.39445312 -1.41796875 13.53515625 C-3.36062405 10.42211108 -3.40381612 8.60972216 -3 5 C-1.6875 2.125 -1.6875 2.125 0 0 Z " fill="#D7D8D8" transform="translate(250,244)"/>
<path d="M0 0 C0.99 0 1.98 0 3 0 C5.02378914 2.54847521 5.91973211 4.63879449 6.625 7.8125 C5.64915644 12.78930217 2.41284939 15.3856977 -1 19 C-2.78534086 21.05205336 -4.55711577 23.1102441 -6.3125 25.1875 C-7.01995361 26.02438354 -7.01995361 26.02438354 -7.74169922 26.87817383 C-24.78649633 47.16698071 -39.27068158 69.38006277 -53 92 C-53.66 91.67 -54.32 91.34 -55 91 C-39.73141793 61.68162896 -22.57709961 33.89498737 -4.03346252 6.54310608 C-1.87157314 3.3583736 -1.87157314 3.3583736 0 0 Z " fill="#D8D9D9" transform="translate(403,244)"/>
<path d="M0 0 C6.028583 0.66984256 9.46486346 4.12135944 13.7890625 8.171875 C17.48064782 11.66709197 17.48064782 11.66709197 22.375 12.8125 C23.6434375 12.626875 23.6434375 12.626875 24.9375 12.4375 C24.57442621 15.12424602 24.26845772 16.99622304 22.625 19.1875 C20.9375 20.4375 20.9375 20.4375 18.9609375 20.73828125 C16.75310617 21.25469012 16.75310617 21.25469012 15.77734375 23.43359375 C15.47957031 24.23925781 15.18179687 25.04492188 14.875 25.875 C13.5431389 29.43615651 13.24207026 30.23445316 9.9375 32.4375 C6.10056413 32.85607482 3.82546936 32.98394269 0.5 30.9375 C-1.67700068 27.45429892 -1.82965169 24.37652888 -1.0625 20.4375 C-0.15625 18.5390625 -0.15625 18.5390625 0.9375 16.75 C2.90748511 13.48721217 3.48094654 12.13293644 2.9375 8.4375 C1.81913776 7.09345225 1.81913776 7.09345225 -1.0625 7.3125 C-3.94413776 7.09345225 -3.94413776 7.09345225 -5.0625 8.4375 C-5.29442865 9.95219448 -5.47465238 11.47504562 -5.625 13 C-5.70878906 13.82628906 -5.79257812 14.65257812 -5.87890625 15.50390625 C-5.93949219 16.14199219 -6.00007813 16.78007812 -6.0625 17.4375 C-7.9375 18.0625 -7.9375 18.0625 -10.0625 18.4375 C-12.0625 16.4375 -12.0625 16.4375 -12.125 13.3125 C-11.18460979 7.64635139 -5.71516971 0.81645282 0 0 Z " fill="#0A0A0A" transform="translate(463.0625,389.5625)"/>
<path d="M0 0 C5.10125474 4.13146442 7.01291812 8.93177273 9.40429688 14.82421875 C10.93386028 18.69274486 10.93386028 18.69274486 14.21484375 20.953125 C14.80394531 20.96859375 15.39304687 20.9840625 16 21 C14.125 24.875 14.125 24.875 13 26 C11.7625 26.0825 10.525 26.165 9.25 26.25 C4.77781077 26.7317439 2.87263317 28.5180204 0 32 C-1 33 -1 33 -4.8125 33.375 C-8.16358878 33.32075576 -8.82012937 33.14477392 -11.5625 30.9375 C-13.51496275 26.94768481 -13.38390851 25.22456281 -12 21 C-9.10864022 17.35821097 -5.85919912 14.57279942 -2 12 C-2.37904208 8.70924004 -2.37904208 8.70924004 -4 6 C-5.99958364 5.95919217 -8.00045254 5.95745644 -10 6 C-11.32 8.64 -12.64 11.28 -14 14 C-15.32 13.67 -16.64 13.34 -18 13 C-18.3125 10.8125 -18.3125 10.8125 -18 8 C-13.38514877 2.46217853 -7.50943537 -2.16180715 0 0 Z " fill="#0A0A0A" transform="translate(409,434)"/>
<path d="M0 0 C3.28469238 1.34546053 6.35505625 2.71011251 8 6 C8.52779299 13.65299833 7.66873706 21.38117416 7 29 C7.99 29.33 8.98 29.66 10 30 C10 30.66 10 31.32 10 32 C7.23749964 33.38125018 5.05268901 33.19079306 2 33 C1.34 32.34 0.68 31.68 0 31 C-3.55515786 30.93762881 -7.06688306 31.13501477 -10.6171875 31.3203125 C-14 31 -14 31 -16.40625 29.20703125 C-18 27 -18 27 -18.625 23.5625 C-17.97266023 19.84416333 -17.18453072 18.24179366 -14.12890625 15.99609375 C-10.4306486 14.26571632 -6.53513307 13.85425991 -2.51171875 13.359375 C-0.06569737 13.26563931 -0.06569737 13.26563931 1 12 C1.2500773 9.54190002 1.2500773 9.54190002 1 7 C-0.81493293 4.77918788 -0.81493293 4.77918788 -3.375 4.6875 C-6.46581754 5.05545447 -7.58242544 6.12832937 -10 8 C-11.32 8 -12.64 8 -14 8 C-14 6.35 -14 4.7 -14 3 C-9.39618438 0.23771063 -5.32173309 -0.9517715 0 0 Z " fill="#0A0A0A" transform="translate(309,449)"/>
<path d="M0 0 C3.86398092 1.52296545 5.71920742 3.82618071 8.25 7.0625 C11.01374694 10.54077663 13.79662815 13.92607699 16.8125 17.1875 C29.75147957 31.61254059 40.66942419 48.28470336 51.3125 64.4375 C51.79920166 65.16573975 52.28590332 65.89397949 52.78735352 66.64428711 C53.9221341 68.38960514 54.97058617 70.19053346 56 72 C55.67 72.66 55.34 73.32 55 74 C50.61212354 68.68061904 46.52111066 63.29607236 42.6875 57.5625 C32.68346824 43.18182942 19.33232686 31.24394035 4.96704102 21.36328125 C4.21350342 20.8425 3.45996582 20.32171875 2.68359375 19.78515625 C2.01900146 19.34051025 1.35440918 18.89586426 0.66967773 18.43774414 C-1.85958703 16.25981751 -2.85642798 14.05907676 -3.30078125 10.78125 C-3.3326968 4.56835703 -3.3326968 4.56835703 -1.5 1.4375 C-0.7575 0.7259375 -0.7575 0.7259375 0 0 Z " fill="#D8D9DA" transform="translate(246,259)"/>
<path d="M0 0 C3.875 1.75 3.875 1.75 5 4 C5.203125 5.98828125 5.203125 5.98828125 5.25 8.3125 C5.27578125 9.07175781 5.3015625 9.83101563 5.328125 10.61328125 C4.69928656 15.18733229 2.65439712 17.48937854 -0.93359375 20.2890625 C-2.09706443 21.07441357 -3.26530707 21.85272799 -4.4375 22.625 C-10.99379908 27.13234943 -16.82710565 32.06196653 -22.53662109 37.59228516 C-23.99204208 38.99234478 -25.47201996 40.36190975 -26.95703125 41.73046875 C-33.75671709 48.12446935 -39.24436983 55.09116382 -44.54858398 62.76977539 C-47.42596985 66.92610071 -50.28770556 70.56117108 -54 74 C-52.70271769 70.49168731 -51.17456516 67.51469321 -49.09375 64.41015625 C-48.52003662 63.55059326 -47.94632324 62.69103027 -47.35522461 61.80541992 C-46.74300049 60.90025635 -46.13077637 59.99509277 -45.5 59.0625 C-44.86779541 58.12317627 -44.23559082 57.18385254 -43.58422852 56.21606445 C-41.73082614 53.47182485 -39.86824886 50.73414926 -38 48 C-37.52933105 47.31067383 -37.05866211 46.62134766 -36.57373047 45.91113281 C-30.34248709 36.84444522 -23.5219353 28.31117326 -16.51464844 19.83496094 C-15.13067673 18.15831178 -13.75451368 16.4757548 -12.3828125 14.7890625 C-8.32225581 9.79881606 -4.21355429 4.86179341 0 0 Z " fill="#D9DADA" transform="translate(408,259)"/>
<path d="M0 0 C4.88276198 4.44394029 5.8779326 8.34499571 6.625 14.75 C6.97383699 17.55483794 7.42031064 20.2245176 8 23 C8.99 23.66 9.98 24.32 11 25 C10.67 25.99 10.34 26.98 10 28 C4.55696203 29.13924051 4.55696203 29.13924051 1.5 28.375 C-2.01801967 27.84729705 -3.87986599 29.40809489 -7 31 C-10.66954188 31.51373586 -12.26675557 31.48239765 -15.375 29.4375 C-17.66695944 25.99956084 -17.71061529 24.05050717 -17 20 C-12.78909541 15.24923585 -8.0261498 13.64714761 -2 12 C-2.66 9.69 -3.32 7.38 -4 5 C-5.65 4.67 -7.3 4.34 -9 4 C-10.65 5.98 -12.3 7.96 -14 10 C-15.32 9.67 -16.64 9.34 -18 9 C-17.80270678 5.44872205 -17.20818982 4.20271114 -14.625 1.6875 C-9.85116393 -0.534803 -5.15600976 -1.39595024 0 0 Z " fill="#0A0A0A" transform="translate(310,75)"/>
<path d="M0 0 C6.34886348 0.25913728 9.6688614 2.38745974 14 7 C15.63753509 10.27507018 15.72936436 13.47984878 15 17 C13.19397546 19.64484505 10.92419078 21.61358211 8.5 23.6875 C3.71710409 27.49734744 3.71710409 27.49734744 1.59375 32.89453125 C1.7278125 33.58933594 1.861875 34.28414062 2 35 C-2.75 34.25 -2.75 34.25 -5 32 C-5.04125 31.21625 -5.0825 30.4325 -5.125 29.625 C-5.71934717 26.91473426 -5.71934717 26.91473426 -7.76953125 25.890625 C-9.19397876 25.22331626 -10.63449929 24.58911644 -12.08984375 23.9921875 C-14 23 -14 23 -16 20 C-16.42660463 16.08945759 -16.58646281 13.87969422 -14.375 10.5625 C-11.26675557 8.51760235 -9.66954188 8.48626414 -6 9 C-2.91444238 10.2959342 -0.45733408 11.62337193 2.125 13.75 C3.93217704 15.24619651 3.93217704 15.24619651 6.1875 14.75 C7.98662264 14.14104904 7.98662264 14.14104904 9 13 C9.04092937 10.66702567 9.04241723 8.33294775 9 6 C5.7 5.67 2.4 5.34 -1 5 C-0.67 3.35 -0.34 1.7 0 0 Z " fill="#070707" transform="translate(467,135)"/>
<path d="M0 0 C5.59310617 0.12247678 10.44142233 2.44142233 14.375 6.375 C15.30443304 12.48270283 13.10796758 16.89981958 10.56640625 22.41015625 C9.3565548 25.42090133 8.78980715 28.16620448 8.375 31.375 C9.035 31.375 9.695 31.375 10.375 31.375 C10.045 32.365 9.715 33.355 9.375 34.375 C6.5625 34.125 6.5625 34.125 3.375 33.375 C2.91480469 32.70855469 2.45460938 32.04210937 1.98046875 31.35546875 C0.54645445 29.14994134 0.54645445 29.14994134 -1.9296875 28.94140625 C-2.77789062 28.94011719 -3.62609375 28.93882813 -4.5 28.9375 C-8.30976442 28.68649063 -9.51070384 28.45119744 -12.8125 26.25 C-14.625 23.375 -14.625 23.375 -14.625 19.75 C-13.64157153 16.4309289 -13.25810667 15.41408695 -10.625 13.375 C-8.72387695 13.03442383 -8.72387695 13.03442383 -6.61328125 13.08203125 C-5.85595703 13.09169922 -5.09863281 13.10136719 -4.31835938 13.11132812 C-3.13983398 13.1490332 -3.13983398 13.1490332 -1.9375 13.1875 C-0.74157227 13.20780273 -0.74157227 13.20780273 0.47851562 13.22851562 C2.44429967 13.26382911 4.40973582 13.31763553 6.375 13.375 C6.75563221 11.0489143 7.08769945 8.71444736 7.375 6.375 C7.045 6.045 6.715 5.715 6.375 5.375 C4.51727838 5.46484301 2.66252015 5.62111861 0.8125 5.8125 C-0.19941406 5.91433594 -1.21132813 6.01617187 -2.25390625 6.12109375 C-3.03636719 6.20488281 -3.81882812 6.28867188 -4.625 6.375 C-5.25 4.5 -5.25 4.5 -5.625 2.375 C-3.625 0.375 -3.625 0.375 0 0 Z " fill="#080808" transform="translate(404.625,89.625)"/>
<path d="M0 0 C4.46463205 1.23779062 8.30523635 3.80996631 12.29296875 6.1171875 C16.41503556 8.16029888 18.94601436 8.29225967 23.4375 7.67578125 C22.21222971 11.72859837 20.73869506 15.11938889 18.4375 18.67578125 C15.44826046 17.2623173 12.78306222 15.61403731 10.0625 13.73828125 C3.87806043 9.17189266 3.87806043 9.17189266 -3.375 7.92578125 C-5.51293086 8.47969449 -5.51293086 8.47969449 -6.5625 9.67578125 C-7.31536138 12.96212198 -7.31536138 12.96212198 -6.5625 16.67578125 C-1.77277119 22.34853268 5.57875434 24.53242323 12.4375 26.67578125 C11.68491752 31.1835967 10.3007003 34.05467499 7.4375 37.67578125 C6.4475 37.67578125 5.4575 37.67578125 4.4375 37.67578125 C4.3859375 36.928125 4.334375 36.18046875 4.28125 35.41015625 C2.82498939 30.69079316 -1.19874056 29.40208879 -5.328125 27.125 C-9.5864478 25.21698338 -12.92287282 24.75310837 -17.5625 24.67578125 C-16.8125 17.92578125 -16.8125 17.92578125 -14.5625 15.67578125 C-13.2425 15.67578125 -11.9225 15.67578125 -10.5625 15.67578125 C-10.62050781 15.09570312 -10.67851562 14.515625 -10.73828125 13.91796875 C-10.97716282 9.78190503 -11.04146159 6.57056213 -8.5625 3.11328125 C-5.56197854 0.67535757 -3.88609357 -0.2576009 0 0 Z " fill="#090909" transform="translate(489.5625,354.32421875)"/>
<path d="M0 0 C2.46800047 1.15173355 4.04783565 2.04783565 6 4 C6.515625 6.30859375 6.515625 6.30859375 6 9 C3.93671693 10.93507329 2.05074801 12.46872702 -0.25 14.0625 C-5.99182061 18.10591424 -5.99182061 18.10591424 -11 23 C-10.82246387 26.01811422 -10.16264785 26.83735215 -8 29 C-3.09231734 29.5745242 -0.39456048 28.4826344 3.6875 25.8125 C4.61949219 25.22082031 5.55148438 24.62914062 6.51171875 24.01953125 C9.12625755 21.89752723 10.46525861 19.9719574 12 17 C13.875 17.3125 13.875 17.3125 16 18 C18 21 18 21 17.984375 23.43359375 C16.59361242 27.05951048 14.52707567 28.05229383 11.25 30.0625 C2.77759776 34.93040739 2.77759776 34.93040739 -2 43 C-4.46800047 41.84826645 -6.04783565 40.95216435 -8 39 C-8.125 35.875 -8.125 35.875 -8 33 C-8.9075 32.62875 -9.815 32.2575 -10.75 31.875 C-14.58590104 29.66198017 -16.08523136 27.98271878 -18 24 C-17.90672164 19.71410492 -17.62114444 17.67012731 -14.671875 14.48828125 C-13.70765625 13.77027344 -12.7434375 13.05226563 -11.75 12.3125 C-10.79609375 11.58675781 -9.8421875 10.86101562 -8.859375 10.11328125 C-7.91578125 9.41589844 -6.9721875 8.71851563 -6 8 C-2.32865904 5.44761843 -2.32865904 5.44761843 -0.1875 1.75 C-0.0946875 0.88375 -0.0946875 0.88375 0 0 Z " fill="#070707" transform="translate(177,367)"/>
<path d="M0 0 C5.75 0.75 5.75 0.75 8 3 C7.74401575 10.02250122 4.50638264 14.21138973 0.6171875 19.81640625 C-1.25029322 23.49272699 -1.11326717 25.10356492 0 29 C3.19998135 30.1143337 3.19998135 30.1143337 7 30 C9.56972404 28.07119537 11.23357301 25.65985105 13 23 C13.40476563 22.40058594 13.80953125 21.80117188 14.2265625 21.18359375 C16.5042981 17.52119155 17.5827217 14.27710254 18 10 C20.9719385 11.12451727 23.33440687 12.22293791 26 14 C25.37932491 17.05204144 24.37769411 19.27349787 22.71484375 21.8984375 C22.04291992 22.98898437 22.04291992 22.98898437 21.35742188 24.1015625 C20.41321304 25.61333565 19.4627076 27.12119487 18.50585938 28.625 C15.87962027 32.91490284 14.34738229 35.79558031 15 41 C10.50970874 41.36407767 10.50970874 41.36407767 8.25 39.75 C6.87632977 37.82686167 6.50966484 36.28405356 6 34 C5.40832031 33.97421875 4.81664062 33.9484375 4.20703125 33.921875 C0.28492922 33.64035381 -2.50308903 33.26916011 -6 31.375 C-8.71562915 28.15019039 -8.89338768 26.20905437 -9 22 C-7.86497023 19.08999987 -6.25364527 16.55516374 -4.5625 13.9375 C-0.42142939 7.52992037 -0.42142939 7.52992037 0 0 Z " fill="#070707" transform="translate(224,419)"/>
<path d="M0 0 C5.05619054 1.00849762 8.56912305 4.26301836 12.515625 7.40625 C17.03256937 10.81376943 20.34459454 11.70103583 26 12 C25.45276317 15.37462715 24.9451 17.08235 23 20 C20.375 20.1875 20.375 20.1875 18 20 C17.96132812 20.88751953 17.96132812 20.88751953 17.921875 21.79296875 C17.639142 25.73195356 17.24692312 28.5346449 15.375 32.0625 C12.91837248 34.06659087 11.40192748 34.84143005 8.203125 34.6328125 C1.93582262 32.8326299 -3.62393058 28.58404628 -9 25 C-12.12521833 24.83300768 -12.12521833 24.83300768 -15 25 C-14.45276317 21.62537285 -13.9451 19.91765 -12 17 C-5.0526454 17.54778891 -1.41892435 20.20713804 4.03515625 24.28515625 C7.36502368 26.21112701 9.21780467 26.43366245 13 26 C14.32935324 24.85554682 14.32935324 24.85554682 14.625 21.875 C13.91327304 17.46229287 13.33951593 16.94685995 10 14.25 C5.83752466 11.31449837 1.85135937 9.49951108 -3 8 C-2.45276317 4.62537285 -1.9451 2.91765 0 0 Z " fill="#0A0A0A" transform="translate(170,149)"/>
<path d="M0 0 C4.55766806 4.21263333 7.5052425 8.75130113 10.60546875 14.09179688 C12.93410755 17.91158157 14.61000163 19.86385605 19 21 C17.63016497 24.16115776 17.0109362 24.9927092 14 27 C10.8125 26.625 10.8125 26.625 8 26 C7.7525 26.7425 7.505 27.485 7.25 28.25 C5.83837375 31.35557775 4.72225826 32.93991267 2 35 C-1.4375 36.0625 -1.4375 36.0625 -5 36 C-9.8000587 31.89758016 -12.70288944 26.89441666 -15.9375 21.546875 C-17.78085399 18.78974794 -17.78085399 18.78974794 -20.75 18.140625 C-21.4925 18.09421875 -22.235 18.0478125 -23 18 C-22.62492618 15.28071483 -22.15781339 14.15781339 -20.1875 12.1875 C-18 11 -18 11 -16.078125 11.13671875 C-13.18616013 12.3380801 -12.26515605 14.02186304 -10.5625 16.625 C-9.964375 17.5221875 -9.36625 18.419375 -8.75 19.34375 C-8.1725 20.2203125 -7.595 21.096875 -7 22 C-6.02807744 23.38013003 -5.04999684 24.75597029 -4.0625 26.125 C-3.0415625 27.548125 -3.0415625 27.548125 -2 29 C1.93075644 28.42547254 1.93075644 28.42547254 5 26 C5.58486736 21.06344099 4.46195136 18.39751917 1.75 14.3125 C1.14671875 13.38050781 0.5434375 12.44851562 -0.078125 11.48828125 C-1.89284634 9.1387335 -3.63076231 7.73499486 -6 6 C-6 5.34 -6 4.68 -6 4 C-4.03852126 2.61061923 -2.03833424 1.2739589 0 0 Z " fill="#0A0A0A" transform="translate(233,97)"/>
<path d="M0 0 C3.16115776 1.36983503 3.9927092 1.9890638 6 5 C5.95875 5.81855469 5.9175 6.63710937 5.875 7.48046875 C5.72207874 10.11430081 5.72207874 10.11430081 7.75 11.73828125 C8.4925 12.25777344 9.235 12.77726563 10 13.3125 C13.75553097 16.40410675 13.75553097 16.40410675 14.8125 18.98046875 C15.12411164 22.33678574 14.60896107 24.23204127 12.50390625 26.88671875 C8.38600755 30.70633908 3.87768076 33.3405436 -1.21484375 35.6640625 C-3.2657005 36.91756324 -3.2657005 36.91756324 -3.75390625 39.6484375 C-3.83511719 40.42445313 -3.91632813 41.20046875 -4 42 C-7.82868919 40.54773858 -9.2538953 38.66681987 -11 35 C-11 33.68 -11 32.36 -11 31 C-10.46632813 30.86464844 -9.93265625 30.72929687 -9.3828125 30.58984375 C-2.63035529 28.63887428 2.44131398 25.23574196 8 21 C7.65772428 18.02934491 7.65772428 18.02934491 7 15 C4.18049433 13.59024717 2.13419951 13.77260947 -1 14 C-3.93078637 15.118512 -3.93078637 15.118512 -6.6875 16.75 C-7.61949219 17.26046875 -8.55148437 17.7709375 -9.51171875 18.296875 C-11.98682337 19.99098114 -13.27000846 21.59578215 -15 24 C-15.66 24 -16.32 24 -17 24 C-18.2890625 22.35546875 -18.2890625 22.35546875 -19.625 20.1875 C-20.07101562 19.47980469 -20.51703125 18.77210938 -20.9765625 18.04296875 C-22 16 -22 16 -22 13 C-20.98550781 13.07605469 -19.97101563 13.15210938 -18.92578125 13.23046875 C-14.32950217 12.96063744 -12.05894887 11.75074661 -8.1875 9.3125 C-7.06730469 8.62800781 -5.94710938 7.94351563 -4.79296875 7.23828125 C-1.89022229 4.9120243 -0.97135042 3.53274579 0 0 Z " fill="#080808" transform="translate(494,164)"/>
<path d="M0 0 C0.10957031 0.87140625 0.21914063 1.7428125 0.33203125 2.640625 C1.13570399 8.67797146 2.05026705 14.54904363 3.625 20.4375 C4.79039194 24.81211196 5.30746909 28.49045338 5 33 C1.99593532 33.91595078 0.51851197 34.22985201 -2.40014648 32.93603516 C-3.21555908 32.39253418 -4.03097168 31.8490332 -4.87109375 31.2890625 C-5.77537109 30.70382812 -6.67964844 30.11859375 -7.61132812 29.515625 C-8.54396484 28.89171875 -9.47660156 28.2678125 -10.4375 27.625 C-12.2843537 26.39974522 -14.13707078 25.1832735 -15.99609375 23.9765625 C-16.81263428 23.43080566 -17.6291748 22.88504883 -18.47045898 22.32275391 C-21.32756043 20.82871128 -23.81402018 20.37223313 -27 20 C-25.49616703 15.78926767 -22.79335044 14.16762883 -19 12 C-18.01 12 -17.02 12 -16 12 C-15.57074219 12.73605469 -15.14148438 13.47210938 -14.69921875 14.23046875 C-12.57423232 17.69395237 -10.22746454 19.14601712 -6.8125 21.3125 C-5.72582031 22.00988281 -4.63914062 22.70726562 -3.51953125 23.42578125 C-2.68808594 23.94527344 -1.85664063 24.46476562 -1 25 C-2.1763232 15.77687142 -2.1763232 15.77687142 -5 7 C-5.99 6.67 -6.98 6.34 -8 6 C-6.24081631 1.94034532 -4.71412298 0 0 0 Z " fill="#0D0D0D" transform="translate(445,409)"/>
<path d="M0 0 C4.05606165 0.46800711 7.46588679 0.87953208 11 3 C10.83757812 3.84046875 10.67515625 4.6809375 10.5078125 5.546875 C9.97589667 9.16390267 9.86722495 12.59572837 9.875 16.25 C9.87242187 17.47203125 9.86984375 18.6940625 9.8671875 19.953125 C9.78891322 22.91769183 9.78891322 22.91769183 11 25 C12.49664922 23.32798583 13.97166238 21.63659103 15.4375 19.9375 C16.26121094 18.99777344 17.08492188 18.05804688 17.93359375 17.08984375 C20.25891964 13.61284416 20.71629459 11.13178245 21 7 C24.71888239 7.50712033 27.73454239 8.11608215 31 10 C31 10.66 31 11.32 31 12 C29.61528549 12.87901156 28.23038201 13.75772637 26.84472656 14.63525391 C22.21854221 18.05774868 18.5697851 22.79524912 14.74609375 27.06445312 C14.06417969 27.81017578 13.38226563 28.55589844 12.6796875 29.32421875 C12.06851074 30.00572998 11.45733398 30.68724121 10.82763672 31.3894043 C8.85893907 33.12430924 7.56459133 33.60841343 5 34 C3.38204195 31.13104762 2.73374938 28.98361944 2.62109375 25.69921875 C2.58693359 24.88646484 2.55277344 24.07371094 2.51757812 23.23632812 C2.49115234 22.39521484 2.46472656 21.55410156 2.4375 20.6875 C2.18193854 13.68946603 1.90085074 6.78875265 0 0 Z " fill="#0B0B0B" transform="translate(258,438)"/>
<path d="M0 0 C3.78695173 0.5409931 5.62745972 2.03432464 8 5 C8 6.32 8 7.64 8 9 C9.670625 9.433125 9.670625 9.433125 11.375 9.875 C15 11 15 11 17 13 C16.625 15.625 16.625 15.625 16 18 C14.68 18.33 13.36 18.66 12 19 C11.62875 18.175 11.2575 17.35 10.875 16.5 C9.22032 13.72883693 9.22032 13.72883693 6.1875 13.375 C1.22596919 14.34784918 -1.39142913 17.33596117 -4.8125 20.875 C-6.46270696 23.82800192 -6.67934983 26.6652382 -7 30 C-10.82246588 29.44040477 -12.58971741 27.78682643 -15.25 25.0625 C-15.95640625 24.35222656 -16.6628125 23.64195312 -17.390625 22.91015625 C-19 21 -19 21 -19 19 C-17.948125 18.773125 -16.89625 18.54625 -15.8125 18.3125 C-11.77077808 17.14380932 -9.77485838 15.20175967 -7 12 C-6.47019531 11.43667969 -5.94039062 10.87335938 -5.39453125 10.29296875 C-2.38209606 7.0086273 -0.28121788 4.64009501 0 0 Z " fill="#080808" transform="translate(202,400)"/>
<path d="M0 0 C-0.13277344 0.57363281 -0.26554687 1.14726563 -0.40234375 1.73828125 C-1.91259056 9.00289914 -2.36570734 16.13879291 -2.57006836 23.53637695 C-2.5985083 24.32874756 -2.62694824 25.12111816 -2.65625 25.9375 C-2.67494141 26.64777344 -2.69363281 27.35804687 -2.71289062 28.08984375 C-3 30 -3 30 -5 33 C-9.94246282 32.59473567 -11.76825333 30.54992426 -14.9375 26.875 C-15.80503906 25.88371094 -16.67257812 24.89242187 -17.56640625 23.87109375 C-18.99817265 22.18193114 -20.42492992 20.48846016 -21.83984375 18.78515625 C-24.38741667 15.71899343 -26.35862575 13.6192494 -30 12 C-29.67 11.01 -29.34 10.02 -29 9 C-25.3962102 7.47839986 -22.94779314 7 -19 7 C-18.67 7.94875 -18.34 8.8975 -18 9.875 C-15.72544983 15.25221327 -11.8715197 19.68577289 -8 24 C-7.67 24 -7.34 24 -7 24 C-6.94595551 21.24973583 -6.90630694 18.50053797 -6.875 15.75 C-6.85824219 14.97269531 -6.84148437 14.19539063 -6.82421875 13.39453125 C-6.74031699 7.91693064 -6.74031699 7.91693064 -9 3 C-3.375 0 -3.375 0 0 0 Z " fill="#0A0A0A" transform="translate(279,80)"/>
<path d="M0 0 C3.98467756 0.82292254 6.67947232 2.66053731 10 5 C9.35305517 7.99211984 8.342867 10.50502188 7 13.25 C5.02268273 17.57000838 4.34346318 21.27738133 4 26 C5.7936743 24.8782037 7.5848773 23.75245517 9.375 22.625 C10.37273437 21.99851562 11.37046875 21.37203125 12.3984375 20.7265625 C15.88805123 18.4722836 15.88805123 18.4722836 17.625 14.875 C17.74875 14.25625 17.8725 13.6375 18 13 C22.35535069 14.16142685 24.64619703 15.07699505 27 19 C25.86949219 19.37640625 24.73898437 19.7528125 23.57421875 20.140625 C17.68620059 22.34490398 12.65626842 25.85728543 7.44726562 29.32421875 C6.68736328 29.81019531 5.92746094 30.29617187 5.14453125 30.796875 C4.12903198 31.46734863 4.12903198 31.46734863 3.09301758 32.15136719 C0.38790124 33.24818095 -1.24040965 32.78527617 -4 32 C-4.43699397 26.53757541 -3.6270052 22.37266465 -2 17.125 C-0.19455172 11.22550704 0.50911355 6.13764673 0 0 Z " fill="#090909" transform="translate(434,105)"/>
<path d="M0 0 C2.625 0.375 2.625 0.375 5 1 C5.33 2.32 5.66 3.64 6 5 C5.175 5.37125 4.35 5.7425 3.5 6.125 C0.76797422 7.77735419 0.76797422 7.77735419 0.25 10.6875 C1.3782986 15.6708188 4.07029394 18.79747319 8 22 C10.75997428 23.17118908 12.99673703 23.57848941 16 24 C14.60249952 27.15835107 12.94801766 29.32272825 10.5 31.75 C9.58734375 32.67039062 9.58734375 32.67039062 8.65625 33.609375 C7 35 7 35 5 35 C4.835 34.030625 4.67 33.06125 4.5 32.0625 C2.72679415 25.7203769 -2.65229441 20.56513706 -8 17 C-9.65549531 16.61500109 -11.3222433 16.27206865 -13 16 C-12.61094382 13.27660672 -11.93262433 11.91096786 -10.25 9.6875 C-8 8 -8 8 -5.25 8.25 C-4.5075 8.4975 -3.765 8.745 -3 9 C-2.87625 7.88625 -2.7525 6.7725 -2.625 5.625 C-2 2 -2 2 0 0 Z " fill="#090909" transform="translate(197,121)"/>
<path d="M0 0 C0.66 0.33 1.32 0.66 2 1 C1.59595624 2.61617503 1.19190318 4.23234774 0.78781128 5.84851074 C0.42838548 7.28637952 0.06911728 8.72428771 -0.29000854 10.16223145 C-1.19400111 13.78093855 -2.09983013 17.3991451 -3.01269531 21.015625 C-8.05763123 41.02655764 -12.55908561 61.10586336 -16.69091797 81.32519531 C-20.37382352 99.32859465 -24.47824509 117.18911805 -29 135 C-29.66 135 -30.32 135 -31 135 C-29.7663898 127.0293855 -28.19729744 119.21495532 -26.3125 111.375 C-23.85336315 100.95119603 -21.62741063 90.49501054 -19.5 80 C-16.79439625 66.67813661 -13.87323184 53.42284736 -10.75146484 40.19140625 C-9.40294201 34.46434632 -8.07671884 28.73214232 -6.75 23 C-6.5037085 21.94361328 -6.25741699 20.88722656 -6.00366211 19.79882812 C-4.6993185 14.17235387 -3.50569848 8.5580604 -2.53613281 2.86328125 C-2.35920898 2.24839844 -2.18228516 1.63351563 -2 1 C-1.34 0.67 -0.68 0.34 0 0 Z " fill="#75878E" transform="translate(365,208)"/>
<path d="M0 0 C1 3 1 3 0.21484375 5.1015625 C-0.20667969 5.93429688 -0.62820313 6.76703125 -1.0625 7.625 C-3.67584303 13.10435735 -5.7191942 18.65146091 -7.69311523 24.38061523 C-9.17645545 28.67798789 -10.7216114 32.94011156 -12.35400391 37.18310547 C-14.93004326 43.88015522 -17.10662951 50.57218453 -19.00390625 57.5 C-20.06418458 61.225527 -21.25749018 64.89496347 -22.5 68.5625 C-24.55406774 74.63818363 -26.49816046 80.7380321 -28.35644531 86.87646484 C-29.16983172 89.56039314 -29.98731369 92.24306465 -30.8046875 94.92578125 C-32.53831573 100.61662333 -34.26975294 106.30812909 -36 112 C-36.66 111.67 -37.32 111.34 -38 111 C-36.75832804 104.94818336 -35.1769565 99.11665217 -33.25 93.25 C-31.01086493 86.30584694 -28.91700027 79.33498235 -26.9375 72.3125 C-20.73664717 50.44539815 -13.55119344 28.88491847 -5 7.8125 C-4.58258545 6.77138062 -4.58258545 6.77138062 -4.15673828 5.70922852 C-2.24707801 1.12353901 -2.24707801 1.12353901 0 0 Z " fill="#798B91" transform="translate(377,226)"/>
<path d="M0 0 C0.99 0 1.98 0 3 0 C8.52308301 21.4748445 13.47795796 43.06873937 17.86425781 64.80200195 C20.4631571 77.66477743 23.33177881 90.45521262 26.33569336 103.22924805 C28.17966885 111.11294464 29.80147398 118.98764921 31 127 C30.34 127 29.68 127 29 127 C25.26382502 112.89464814 22.02869952 98.7207568 19.0625 84.4375 C14.18163587 60.95150878 8.92772695 37.56853104 3.26171875 14.2578125 C2.11352776 9.51773345 1.04193259 4.76451806 0 0 Z " fill="#75878E" transform="translate(291,216)"/>
<path d="M0 0 C8.49834983 -0.89108911 8.49834983 -0.89108911 11.77734375 1.0546875 C14.29676312 3.75667349 15.35207722 6.46674234 15.625 10.0625 C15 14 15 14 12.9375 16.9375 C9.5318374 19.32870991 7.11432986 19.7579806 3 20 C-1.97815534 6.13228155 -1.97815534 6.13228155 0 0 Z " fill="#DADADA" transform="translate(360,437)"/>
<path d="M0 0 C2.43541073 2.43541073 3.0627722 4.47951457 4.2421875 7.71484375 C4.66886719 8.87693359 5.09554688 10.03902344 5.53515625 11.23632812 C6.19837891 13.0684082 6.19837891 13.0684082 6.875 14.9375 C7.30941406 16.12408203 7.74382812 17.31066406 8.19140625 18.53320312 C9.05471401 20.89368876 9.91485192 23.25533626 10.77172852 25.61816406 C11.55822215 27.78364008 12.34989752 29.94724542 13.14819336 32.10839844 C14.88853035 36.82901737 16.51620847 41.50911752 17.8125 46.375 C19.49578167 52.42553609 21.42491796 58.36391551 23.4375 64.3125 C26.53007371 73.48032855 29.36735509 82.69059957 32 92 C32.22993652 92.80759766 32.45987305 93.61519531 32.69677734 94.44726562 C33.4061681 96.942861 34.1105445 99.43980382 34.8125 101.9375 C35.03180176 102.71375732 35.25110352 103.49001465 35.47705078 104.28979492 C37 109.76515997 37 109.76515997 37 112 C36.34 112 35.68 112 35 112 C32.52936199 104.77034616 30.10847909 97.55129817 28.0625 90.1875 C26.57890036 84.8727575 24.9046852 79.6576824 23.125 74.4375 C20.91472393 67.94615861 18.95462016 61.42066481 17.125 54.8125 C12.99711779 40.01437974 8.05721856 25.43074976 1.96875 11.3203125 C0.68091152 8.23573163 -0.28977275 5.26704533 -1 2 C-0.67 1.34 -0.34 0.68 0 0 Z " fill="#76888F" transform="translate(281,229)"/>
<path d="M0 0 C6.3425171 0.5636029 11.71190415 2.64563775 17.59765625 4.94140625 C22.15382435 6.35899701 25.47797197 6.50734268 30 5 C29.00956295 9.83628305 28.04301154 14.47618873 26 19 C25.01 18.67 24.02 18.34 23 18 C22.67 17.01 22.34 16.02 22 15 C19.65459185 13.98561098 17.42284465 13.14763944 15 12.375 C8.08970588 10.08970588 8.08970588 10.08970588 7 9 C5.47480724 9.08937803 3.95318071 9.24537146 2.4375 9.4375 C1.61121094 9.53933594 0.78492188 9.64117187 -0.06640625 9.74609375 C-0.70449219 9.82988281 -1.34257812 9.91367187 -2 10 C-1.85950482 8.52031676 -1.71245174 7.04125484 -1.5625 5.5625 C-1.48128906 4.73878906 -1.40007812 3.91507812 -1.31640625 3.06640625 C-1 1 -1 1 0 0 Z " fill="#070707" transform="translate(493,332)"/>
<path d="M0 0 C4.12643627 0.15870909 6.54255867 0.69503912 10 3 C12.45347822 6.68021733 12.47859265 8.57774176 11.6953125 12.8359375 C10.53341429 16.45218248 9.21417529 17.99114044 6 20 C2.89485848 20.0988236 0.02730081 19.66613809 -3 19 C-4.49314068 15.04815434 -3.53513125 11.84129199 -2.625 7.8125 C-2.34914063 6.56082031 -2.07328125 5.30914062 -1.7890625 4.01953125 C-1 1 -1 1 0 0 Z " fill="#D7D7D7" transform="translate(369,68)"/>
<path d="M0 0 C1 3 1 3 -0.6328125 6.28125 C-1.45690062 7.69140204 -2.28828076 9.09730583 -3.125 10.5 C-13.05028923 27.756164 -21.33376486 45.92399366 -29 64.28125 C-30.39335729 67.60826018 -31.85236365 70.89690917 -33.35546875 74.17578125 C-36.46115028 80.96165376 -39.38433892 87.82387628 -42.3125 94.6875 C-42.86772409 95.98637705 -43.42306198 97.28520547 -43.97851562 98.58398438 C-45.3201244 101.7221823 -46.66059554 104.86086078 -48 108 C-48.66 107.34 -49.32 106.68 -50 106 C-19.51991791 34.49450719 -19.51991791 34.49450719 -8.3125 12.75 C-7.71123291 11.58098145 -7.10996582 10.41196289 -6.49047852 9.20751953 C-5.93287842 8.14388184 -5.37527832 7.08024414 -4.80078125 5.984375 C-4.30747314 5.04303711 -3.81416504 4.10169922 -3.3059082 3.13183594 C-2 1 -2 1 0 0 Z " fill="#75888E" transform="translate(392,231)"/>
<path d="M0 0 C2.45234885 0.98093954 3.7809268 1.68703828 5.3125 3.875 C6.1494957 6.46207762 6.04344135 7.500886 5 10 C2.99047852 11.125 2.99047852 11.125 0.37890625 12 C-0.55630859 12.33 -1.49152344 12.66 -2.45507812 13 C-3.43927734 13.33 -4.42347656 13.66 -5.4375 14 C-7.37824998 14.65329651 -9.31473583 15.31943891 -11.24609375 16 C-12.10904053 16.28875 -12.9719873 16.5775 -13.86108398 16.875 C-16.41224094 18.21682528 -17.0046321 19.34476365 -18 22 C-18.66 22 -19.32 22 -20 22 C-20.67305018 20.39850114 -21.33822227 18.79368971 -22 17.1875 C-22.37125 16.29417969 -22.7425 15.40085938 -23.125 14.48046875 C-24 12 -24 12 -24 9 C-22.84371094 9.22042969 -21.68742187 9.44085938 -20.49609375 9.66796875 C-15.74880588 10.25706354 -12.39226162 9.17182706 -8.0625 7.3125 C-7.39154297 7.05533203 -6.72058594 6.79816406 -6.02929688 6.53320312 C-2.23430912 5.04726814 -2.23430912 5.04726814 -0.05859375 1.79296875 C-0.03925781 1.20128906 -0.01992188 0.60960937 0 0 Z " fill="#050505" transform="translate(515,205)"/>
<path d="M0 0 C3.85478328 1.28492776 4.08166391 2.45797739 5.94140625 6 C6.51584473 7.0936084 7.0902832 8.1872168 7.68212891 9.31396484 C8.31020738 10.54198527 8.93695271 11.77068827 9.5625 13 C9.88547058 13.62835754 10.20844116 14.25671509 10.54119873 14.90411377 C25.00342668 43.12556303 36.88907881 72.7129391 49 102 C48.34 102.66 47.68 103.32 47 104 C46.55269531 102.90042969 46.10539062 101.80085938 45.64453125 100.66796875 C42.25519276 92.36681824 38.78699653 84.12941921 35 76 C32.03984873 69.64554194 29.2638624 63.24303811 26.625 56.75 C20.73940478 42.35617196 13.80486792 28.50467556 6.79858398 14.63354492 C5.91408569 12.87747925 5.91408569 12.87747925 5.01171875 11.0859375 C4.48022217 10.0345459 3.94872559 8.9831543 3.40112305 7.89990234 C2.14492521 5.29995149 1.03226882 2.69538583 0 0 Z " fill="#76898F" transform="translate(265,235)"/>
<path d="M0 0 C0.33 0 0.66 0 1 0 C1.0810347 0.80003952 1.1620694 1.60007904 1.24555969 2.42436218 C2.02427442 10.1119044 2.80329401 17.79941564 3.58262348 25.48689556 C4.06059451 30.20182614 4.53832821 34.91678068 5.01584053 39.63175774 C5.24809382 41.9242915 5.48058103 44.21680146 5.71310425 46.50930786 C6.02139186 49.54899279 6.32866143 52.58877833 6.63528442 55.62863159 C7.37812683 62.97859561 8.13792744 70.32612377 8.93505859 77.67041016 C9.08144446 79.03227868 9.22770313 80.39416088 9.37382507 81.75605774 C9.64711582 84.2914266 9.92521591 86.82628307 10.20881653 89.36051941 C10.3283519 90.47493912 10.44788727 91.58935883 10.57104492 92.73754883 C10.73222054 94.19757072 10.73222054 94.19757072 10.89665222 95.68708801 C11 98 11 98 10 100 C9.34 99.67 8.68 99.34 8 99 C7.6496582 96.5859375 7.6496582 96.5859375 7.48828125 93.375 C7.06220588 86.55036789 6.30047144 79.81011205 5.44299316 73.02761841 C3.8679595 60.52799927 2.39686616 48.01618499 1.01846313 35.4934082 C0.84138673 33.88999815 0.66237258 32.28680075 0.48129272 30.68383789 C-1.93923921 9.21138626 -1.93923921 9.21138626 0 0 Z " fill="#788A90" transform="translate(315,249)"/>
<path d="M0 0 C0.99 0.33 1.98 0.66 3 1 C2.52280518 1.70793701 2.04561035 2.41587402 1.55395508 3.14526367 C-12.70670581 24.3334603 -26.45221283 45.74094743 -39 68 C-39.5470459 68.9684082 -40.0940918 69.93681641 -40.65771484 70.93457031 C-42.36613665 73.97122856 -44.06046894 77.01529677 -45.75 80.0625 C-46.55739624 81.5009729 -46.55739624 81.5009729 -47.38110352 82.96850586 C-47.86893311 83.85675049 -48.3567627 84.74499512 -48.859375 85.66015625 C-49.29733398 86.45043213 -49.73529297 87.24070801 -50.18652344 88.05493164 C-50.58919434 89.01774048 -50.58919434 89.01774048 -51 90 C-50.67 90.66 -50.34 91.32 -50 92 C-51.98 92.495 -51.98 92.495 -54 93 C-52.32949524 87.15323336 -49.56662728 81.98134276 -46.75 76.625 C-46.22204834 75.61840332 -45.69409668 74.61180664 -45.15014648 73.57470703 C-31.67520298 48.13013612 -16.5002727 23.58522779 0 0 Z " fill="#74868D" transform="translate(400,245)"/>
<path d="M0 0 C0 4.30229024 -2.57115048 6.26678772 -5.3125 9.3125 C-6.42412371 10.5787586 -7.53344562 11.84704108 -8.640625 13.1171875 C-9.48657227 14.08736816 -9.48657227 14.08736816 -10.34960938 15.07714844 C-14.7663542 20.22304818 -18.89174676 25.60679963 -23 31 C-23.43634766 31.57266602 -23.87269531 32.14533203 -24.32226562 32.73535156 C-33.85587732 45.32678093 -42.93941843 58.41498568 -51 72 C-51.99 71.67 -52.98 71.34 -54 71 C-42.03751866 52.29546659 -29.85831435 33.87138023 -15.55810547 16.85498047 C-13.9787 14.97464158 -12.41246396 13.08390196 -10.84765625 11.19140625 C-9.85750959 10.00198879 -8.86665794 8.81315775 -7.875 7.625 C-7.20078003 6.81204468 -7.20078003 6.81204468 -6.51293945 5.98266602 C-4.44932575 3.53685758 -2.68869201 1.79246134 0 0 Z " fill="#71848B" transform="translate(407,258)"/>
<path d="M0 0 C0.99 0 1.98 0 3 0 C4.66308594 1.98999023 4.66308594 1.98999023 6.484375 4.80859375 C7.1647583 5.85305664 7.8451416 6.89751953 8.54614258 7.97363281 C9.28139958 9.12784913 10.01600172 10.28248282 10.75 11.4375 C11.51224453 12.62230805 12.27486337 13.80687536 13.0378418 14.99121094 C28.3804415 38.90365441 42.55575922 63.4527057 55 89 C54.34 89 53.68 89 53 89 C52.60844727 88.2565332 52.21689453 87.51306641 51.81347656 86.74707031 C39.81792556 64.02344917 26.93939754 42.20665847 12.79980469 20.73583984 C10.04027258 16.54114142 7.29781865 12.33551616 4.5625 8.125 C4.09577881 7.41126221 3.62905762 6.69752441 3.14819336 5.9621582 C0 1.11482452 0 1.11482452 0 0 Z " fill="#74878D" transform="translate(254,246)"/>
<path d="M0 0 C2.5502476 3.8253714 2.07502074 6.62586109 1.74609375 11.01171875 C1.6935997 11.8083342 1.64110565 12.60494965 1.58702087 13.42570496 C1.02864837 21.45370359 0.21767583 29.45497635 -0.67456055 37.4519043 C-0.93930012 39.828661 -1.19574082 42.20621102 -1.45117188 44.58398438 C-2.3185696 52.55049681 -3.30361622 60.46709594 -4.62280273 68.37451172 C-5.09195265 71.64003809 -5.15303948 74.70965114 -5 78 C-5.66 78 -6.32 78 -7 78 C-7.89396318 74.32423237 -8.00814696 71.31451929 -7.59448242 67.56152344 C-7.42386543 65.96265289 -7.42386543 65.96265289 -7.24980164 64.33148193 C-7.05460686 62.612789 -7.05460686 62.612789 -6.85546875 60.859375 C-6.72562088 59.66378967 -6.59577301 58.46820435 -6.46199036 57.23638916 C-6.04426999 53.40677442 -5.61595817 49.5784267 -5.1875 45.75 C-4.91012643 43.21882452 -4.63342662 40.68757511 -4.35742188 38.15625 C-2.96447393 25.43052192 -1.52748257 12.71030511 0 0 Z " fill="#819197" transform="translate(338,271)"/>
<path d="M0 0 C3.58926169 0.5548009 4.88904132 1.64104559 7.0390625 4.5234375 C7.61100342 5.28438721 8.18294434 6.04533691 8.7722168 6.8293457 C9.38363525 7.66941162 9.99505371 8.50947754 10.625 9.375 C11.26800049 10.24535889 11.91100098 11.11571777 12.57348633 12.01245117 C18.1456815 19.6429104 23.44647804 27.45271148 28.6875 35.3125 C29.07472229 35.89304138 29.46194458 36.47358276 29.86090088 37.07171631 C33.76866338 42.9455205 37.61373424 48.80822647 41 55 C40.01 55.495 40.01 55.495 39 56 C38.51756836 55.26587891 38.03513672 54.53175781 37.53808594 53.77539062 C28.79312357 40.49369315 20.06016 27.27681132 10.31396484 14.69921875 C8.10184585 11.83850746 5.92573087 8.95091804 3.75 6.0625 C3.02296875 5.10472656 2.2959375 4.14695312 1.546875 3.16015625 C0 1 0 1 0 0 Z " fill="#6F838A" transform="translate(262,275)"/>
<path d="M0 0 C0.99 0.33 1.98 0.66 3 1 C0.87049153 3.22180915 -1.35381959 5.08996386 -3.8125 6.9375 C-18.30135567 18.13877091 -33.25158018 30.29618188 -43 46 C-43.66 45.34 -44.32 44.68 -45 44 C-34.56569981 29.05936966 -21.50743128 15.76403109 -7 4.75 C-6.33597168 4.24267334 -5.67194336 3.73534668 -4.98779297 3.21264648 C-3.125 1.859375 -3.125 1.859375 0 0 Z " fill="#70848B" transform="translate(408,277)"/>
<path d="M0 0 C0.33 1.32 0.66 2.64 1 4 C1.66 4 2.32 4 3 4 C2.4683836 9.1006543 1.93526164 14.20114845 1.40087891 19.30151367 C1.22014933 21.02836081 1.03979672 22.75524746 0.85986328 24.48217773 C0.33721113 29.49701053 -0.19436802 34.51077118 -0.73571777 39.52362061 C-1.00078794 42.00738316 -1.25488554 44.49212512 -1.50878906 46.97705078 C-1.67461869 48.52772406 -1.840937 50.07834518 -2.0078125 51.62890625 C-2.07821747 52.34545883 -2.14862244 53.06201141 -2.22116089 53.80027771 C-2.77240423 58.77240423 -2.77240423 58.77240423 -5 61 C-5.56576064 48.30967457 -3.87796567 35.77877693 -2.5 23.1875 C-2.25848857 20.9343118 -2.01759792 18.68105698 -1.77734375 16.42773438 C-1.19205418 10.95103381 -0.5990938 5.47520681 0 0 Z " fill="#73868D" transform="translate(344,213)"/>
<path d="M0 0 C0.06058594 0.63808594 0.12117188 1.27617187 0.18359375 1.93359375 C0.26738281 2.75988281 0.35117187 3.58617187 0.4375 4.4375 C0.51871094 5.26121094 0.59992188 6.08492188 0.68359375 6.93359375 C0.78930815 8.98662025 0.78930815 8.98662025 2 10 C6.65065613 9.55206891 6.65065613 9.55206891 11 8 C10.52 13.4 10.52 13.4 8.375 15.875 C5.02604821 17.46134558 2.65973254 17.45746657 -1 17 C-3.4375 15.5 -3.4375 15.5 -5 13 C-5.6891515 8.74296289 -5.59132173 4.59905796 -3 1 C-1 0 -1 0 0 0 Z " fill="#0A0A0A" transform="translate(467,405)"/>
<path d="M0 0 C17.18033182 8.78105849 33.77973072 25.7762159 44 42 C43.34 42.66 42.68 43.32 42 44 C41.236875 42.9275 40.47375 41.855 39.6875 40.75 C35.21396032 34.78879736 30.11026851 29.41021906 25 24 C24.2678125 23.21367187 23.535625 22.42734375 22.78125 21.6171875 C17.81882636 16.45108229 12.44099871 12.06149545 6.69604492 7.80444336 C3.63701197 5.49622912 1.29681283 3.68432254 0 0 Z " fill="#6D8188" transform="translate(249,279)"/>
<path d="M0 0 C1.84753138 3.11770921 2.54282688 5.38115411 2 9 C0.3125 11.375 0.3125 11.375 -2 13 C-5.39154295 12.83849795 -6.58296757 12.41703243 -9 10 C-8.91383221 6.03628177 -8.45811535 4.45811535 -5.625 1.625 C-3 0 -3 0 0 0 Z " fill="#D3D3D3" transform="translate(411,449)"/>
<path d="M0 0 C0.48461538 6.3 0.48461538 6.3 -1.6875 9.4375 C-4.42208961 11.28519568 -5.76418539 11.5109181 -9 11 C-11 9 -11 9 -11.375 6.0625 C-11 3 -11 3 -9.4375 1.125 C-6.19726212 -0.3704944 -3.52393641 -0.20330402 0 0 Z " fill="#D3D3D3" transform="translate(309,466)"/>
<path d="M0 0 C2.98828314 0.32305764 4.61321245 0.65189121 6.875 2.6875 C8.40903612 5.84079648 7.93901464 7.6773328 7 11 C5 13 5 13 2.5 13.25 C0 13 0 13 -2 11 C-2.46376812 3.69565217 -2.46376812 3.69565217 0 0 Z " fill="#D2D2D2" transform="translate(469,403)"/>
<path d="M0 0 C0.48461538 6.3 0.48461538 6.3 -1.6875 9.4375 C-4.42208961 11.28519568 -5.76418539 11.5109181 -9 11 C-9.66 10.34 -10.32 9.68 -11 9 C-10.9375 5.5625 -10.9375 5.5625 -10 2 C-6.55207714 -1.06482032 -4.3491741 -1.36688329 0 0 Z " fill="#C9C9C9" transform="translate(310,91)"/>
<path d="M0 0 C3.88095252 0.45658265 5.45400707 1.64150707 8.1875 4.375 C8.1875 6.375 8.1875 6.375 6.0625 8.5625 C3.1875 10.375 3.1875 10.375 0.0625 10.3125 C-4.21067629 8.91907295 -4.21067629 8.91907295 -5.8125 6.375 C-5.44855561 2.37161172 -4.08892235 0.54518965 0 0 Z " fill="#D1D1D1" transform="translate(461.8125,148.625)"/>
<path d="M0 0 C0.70125 0.01417969 1.4025 0.02835937 2.125 0.04296875 C3.176875 0.05263672 3.176875 0.05263672 4.25 0.0625 C6.125 0.23046875 6.125 0.23046875 8.125 1.23046875 C7.779156 4.34306479 7.25120033 6.05919688 5.375 8.60546875 C3.125 10.23046875 3.125 10.23046875 0.5 10.04296875 C-1.875 9.23046875 -1.875 9.23046875 -3.875 8.23046875 C-4 5.35546875 -4 5.35546875 -3.875 2.23046875 C-1.875 0.23046875 -1.875 0.23046875 0 0 Z " fill="#D3D3D3" transform="translate(400.875,105.76953125)"/>
<path d="M0 0 C0.66 0 1.32 0 2 0 C4.26296661 12.39138999 5.18281875 24.40581913 5 37 C4.34 37 3.68 37 3 37 C2.49065371 32.7093897 1.99424636 28.41737379 1.5 24.125 C1.35691406 22.92101562 1.21382813 21.71703125 1.06640625 20.4765625 C0.28326042 13.61471333 -0.21540245 6.90683975 0 0 Z " fill="#71848B" transform="translate(310,218)"/>
<path d="M0 0 C3 0.25 3 0.25 5 2.25 C5.25 4.75 5.25 4.75 5 7.25 C3 9.25 3 9.25 0 9.5 C-3 9.25 -3 9.25 -5 7.25 C-5.25 4.75 -5.25 4.75 -5 2.25 C-3 0.25 -3 0.25 0 0 Z " fill="#0A0A0A" transform="translate(140,272.75)"/>
<path d="M0 0 C0.33 0 0.66 0 1 0 C1.5955588 5.51679519 2.18336312 11.03433984 2.76391602 16.55273438 C2.96261732 18.43089224 3.16345627 20.30882521 3.36645508 22.18652344 C3.65744956 24.88160188 3.94081022 27.57738896 4.22265625 30.2734375 C4.31531265 31.11619232 4.40796906 31.95894714 4.50343323 32.82723999 C5.11387171 38.77225659 5.11387171 38.77225659 4 41 C3.34 40.67 2.68 40.34 2 40 C1.65625 37.55078125 1.65625 37.55078125 1.5 34.3125 C1.213982 29.46608396 0.68083049 24.78663314 -0.125 20 C-1.1668451 13.18204309 -0.83878478 6.82362757 0 0 Z " fill="#839398" transform="translate(321,308)"/>
<path d="M0 0 C3.625 0.375 3.625 0.375 7 1 C7.625 3.3125 7.625 3.3125 8 6 C7.01 7.485 7.01 7.485 6 9 C3 9.3125 3 9.3125 0 9 C-2 7 -2 7 -2.25 4.5 C-2 2 -2 2 0 0 Z " fill="#090909" transform="translate(514,273)"/>
<path d="M0 0 C2.62761744 3.94142615 2.03322874 7.04093736 1.6875 11.5625 C1.63263428 12.37009766 1.57776855 13.17769531 1.52124023 14.00976562 C1.3585817 16.34081451 1.18029297 18.67026046 1 21 C0.92523438 22.10214844 0.85046875 23.20429688 0.7734375 24.33984375 C0.26644737 30.73355263 0.26644737 30.73355263 -2 33 C-2.270766 21.82338136 -1.53472832 11.07196858 0 0 Z " fill="#798B91" transform="translate(338,271)"/>
<path d="M0 0 C2.5 0.125 2.5 0.125 3.5 1.125 C3.625 4.125 3.625 4.125 3.5 7.125 C2.5 8.125 2.5 8.125 0.0625 8.3125 C-2.5 8.125 -2.5 8.125 -4.5 6.125 C-3.77607362 0.18880368 -3.77607362 0.18880368 0 0 Z " fill="#0B0B0B" transform="translate(482.5,326.875)"/>
<path d="M0 0 C0.598125 0.20625 1.19625 0.4125 1.8125 0.625 C2.4375 3.5 2.4375 3.5 2.8125 6.625 C2.1525 7.285 1.4925 7.945 0.8125 8.625 C-1.8125 8.25 -1.8125 8.25 -4.1875 7.625 C-4.5175 5.645 -4.8475 3.665 -5.1875 1.625 C-2.1875 -0.375 -2.1875 -0.375 0 0 Z " fill="#111111" transform="translate(531.1875,203.375)"/>
<path d="M0 0 C1.16983989 3.42967895 0.81325413 5.54339435 -0.21484375 8.984375 C-0.48876953 9.91894531 -0.76269531 10.85351562 -1.04492188 11.81640625 C-1.33947266 12.78449219 -1.63402344 13.75257813 -1.9375 14.75 C-2.22818359 15.73355469 -2.51886719 16.71710938 -2.81835938 17.73046875 C-3.53672769 20.15643388 -4.26420822 22.57927358 -5 25 C-5.66 25 -6.32 25 -7 25 C-6.38260016 21.9359174 -5.75473209 18.87406982 -5.125 15.8125 C-4.95097656 14.94818359 -4.77695312 14.08386719 -4.59765625 13.19335938 C-2.35529891 2.35529891 -2.35529891 2.35529891 0 0 Z " fill="#CED1D2" transform="translate(342,320)"/>
<path d="M0 0 C0.33 0.66 0.66 1.32 1 2 C-0.92878186 4.79778364 -2.86947938 7.58709037 -4.8125 10.375 C-5.35970703 11.1690625 -5.90691406 11.963125 -6.47070312 12.78125 C-7.00244141 13.54179687 -7.53417969 14.30234375 -8.08203125 15.0859375 C-8.56905518 15.7876709 -9.0560791 16.4894043 -9.55786133 17.21240234 C-11 19 -11 19 -14 21 C-12.38008817 16.25071304 -9.7830146 12.37681308 -7 8.25 C-6.54882812 7.56550781 -6.09765625 6.88101562 -5.6328125 6.17578125 C-2.25344122 1.12672061 -2.25344122 1.12672061 0 0 Z " fill="#CFD2D2" transform="translate(368,312)"/>
<path d="M0 0 C1 3 1 3 0.01196289 5.0847168 C-0.7499939 6.25514526 -0.7499939 6.25514526 -1.52734375 7.44921875 C-2.07197266 8.29677734 -2.61660156 9.14433594 -3.17773438 10.01757812 C-3.75845703 10.89865234 -4.33917969 11.77972656 -4.9375 12.6875 C-5.51435547 13.58017578 -6.09121094 14.47285156 -6.68554688 15.39257812 C-8.11463635 17.60117095 -9.5530068 19.80311214 -11 22 C-11.66 21.67 -12.32 21.34 -13 21 C-11.21735337 17.68256849 -9.42239799 14.37195906 -7.625 11.0625 C-6.86316406 9.64420898 -6.86316406 9.64420898 -6.0859375 8.19726562 C-5.35117187 6.84858398 -5.35117187 6.84858398 -4.6015625 5.47265625 C-4.15119629 4.64000244 -3.70083008 3.80734863 -3.23681641 2.94946289 C-2 1 -2 1 0 0 Z " fill="#CDD0D1" transform="translate(361,314)"/>
<path d="M0 0 C1.53884929 2.82967892 2.43126064 5.39421917 3.0703125 8.546875 C3.33134766 9.81337891 3.33134766 9.81337891 3.59765625 11.10546875 C3.77167969 11.97816406 3.94570313 12.85085938 4.125 13.75 C4.30675781 14.63816406 4.48851562 15.52632813 4.67578125 16.44140625 C5.12222537 18.62663271 5.56344566 20.81278017 6 23 C5.34 23 4.68 23 4 23 C3.12975626 20.29592085 2.2786585 17.58812663 1.4375 14.875 C1.19064453 14.11445313 0.94378906 13.35390625 0.68945312 12.5703125 C-0.70998536 7.99749943 -1.26900386 4.75686477 0 0 Z " fill="#CCCFD0" transform="translate(315,322)"/>
<path d="M0 0 C0.66 0 1.32 0 2 0 C2.84023188 4.35332736 3.10770995 8.44442519 3.0625 12.875 C3.05347656 14.02742187 3.04445313 15.17984375 3.03515625 16.3671875 C3.02355469 17.23601562 3.01195312 18.10484375 3 19 C2.34 19 1.68 19 1 19 C0.67 12.73 0.34 6.46 0 0 Z " fill="#6A7E86" transform="translate(312,236)"/>
<path d="M0 0 C0.33 0.66 0.66 1.32 1 2 C1.66 2 2.32 2 3 2 C1.1668733 7.99932374 -1.07321751 13.44920563 -4 19 C-5.27182008 16.45635984 -4.82067275 15.75536947 -4.00390625 13.0859375 C-3.66069336 11.94511719 -3.66069336 11.94511719 -3.31054688 10.78125 C-3.06369141 9.9871875 -2.81683594 9.193125 -2.5625 8.375 C-2.31951172 7.57320313 -2.07652344 6.77140625 -1.82617188 5.9453125 C-1.22395927 3.96155332 -0.61281311 1.98051018 0 0 Z " fill="#CACECF" transform="translate(344,324)"/>
<path d="M0 0 C0.99 0 1.98 0 3 0 C4.73868848 2.26502615 6.25168844 4.45974068 7.75 6.875 C8.17410156 7.52597656 8.59820312 8.17695313 9.03515625 8.84765625 C10.09494924 10.52192205 11.05584303 12.25790506 12 14 C11.67 14.66 11.34 15.32 11 16 C2.3690205 5.62642369 2.3690205 5.62642369 0 0 Z " fill="#CBCFD0" transform="translate(290,317)"/>
<path d="M0 0 C0.33 0 0.66 0 1 0 C1.21432579 6.64409958 0.51233701 12.53205867 -1 19 C-1.33 19 -1.66 19 -2 19 C-2.19818283 12.29481414 -2.30844801 6.34823202 0 0 Z " fill="#667B82" transform="translate(343,235)"/>
<path d="M0 0 C2.26071155 3.39106733 3.65268823 6.91514137 5.125 10.6875 C5.40214844 11.38939453 5.67929687 12.09128906 5.96484375 12.81445312 C6.64635741 14.54173775 7.32359772 16.27070737 8 18 C7.34 18 6.68 18 6 18 C4.79749842 15.75692972 3.6130838 13.5071209 2.4375 11.25 C2.09525391 10.61578125 1.75300781 9.9815625 1.40039062 9.328125 C-1.06382218 4.54904562 -1.06382218 4.54904562 -0.71484375 1.546875 C-0.47894531 1.03640625 -0.24304688 0.5259375 0 0 Z " fill="#CFD1D2" transform="translate(305,322)"/>
<path d="M0 0 C0.33 0.99 0.66 1.98 1 3 C-1.64 5.64 -4.28 8.28 -7 11 C-7.66 10.34 -8.32 9.68 -9 9 C-6.03 6.03 -3.06 3.06 0 0 Z " fill="#667B83" transform="translate(384,297)"/>
<path d="M0 0 C0.99 0 1.98 0 3 0 C1.63408831 3.54243452 0.09068516 6.92627929 -1.625 10.3125 C-2.07101562 11.19550781 -2.51703125 12.07851563 -2.9765625 12.98828125 C-3.31429688 13.65214844 -3.65203125 14.31601562 -4 15 C-4.66 14.67 -5.32 14.34 -6 14 C-4.02 9.38 -2.04 4.76 0 0 Z " fill="#CED1D2" transform="translate(349,325)"/>
<path d="M0 0 C3 1 3 1 4.60546875 3.94140625 C5.12753906 5.13636719 5.64960938 6.33132812 6.1875 7.5625 C6.71730469 8.76003906 7.24710937 9.95757812 7.79296875 11.19140625 C8.19128906 12.11824219 8.58960938 13.04507813 9 14 C8.01 14.495 8.01 14.495 7 15 C5.82823482 12.87767021 4.66245215 10.75242209 3.5 8.625 C3.16613281 8.02171875 2.83226562 7.4184375 2.48828125 6.796875 C0 2.2265625 0 2.2265625 0 0 Z " fill="#6C8087" transform="translate(265,235)"/>
<path d="M0 0 C0.33 0 0.66 0 1 0 C0.58846263 4.97093824 0.20399168 9.44508386 -2 14 C-2.66 14 -3.32 14 -4 14 C-3.46148032 8.72250715 -2.22656164 4.74354436 0 0 Z " fill="#71848B" transform="translate(357,278)"/>
<path d="M0 0 C3 1 3 1 4.82421875 4.16015625 C5.45553148 5.45600869 6.07625399 6.75706229 6.6875 8.0625 C7.00783203 8.72572266 7.32816406 9.38894531 7.65820312 10.07226562 C8.4478598 11.71050858 9.22512362 13.35471454 10 15 C9.34 15 8.68 15 8 15 C6.52690889 12.89980986 5.18690365 10.82232271 3.875 8.625 C3.50246094 8.02171875 3.12992187 7.4184375 2.74609375 6.796875 C0 2.27034684 0 2.27034684 0 0 Z " fill="#CDD0D1" transform="translate(298,321)"/>
<path d="M0 0 C3.17755309 3.46642155 4.45964644 7.38898294 5 12 C4.546875 14.25 4.546875 14.25 4 16 C3.32320342 14.274773 2.65898 12.54461061 2 10.8125 C1.443125 9.36810547 1.443125 9.36810547 0.875 7.89453125 C0.02363228 5.07817642 -0.17072647 2.91835561 0 0 Z " fill="#6E8189" transform="translate(307,307)"/>
<path d="M0 0 C1 3 1 3 0.22265625 5.04296875 C-0.16019531 5.75066406 -0.54304688 6.45835937 -0.9375 7.1875 C-1.31777344 7.90292969 -1.69804687 8.61835938 -2.08984375 9.35546875 C-2.54037109 10.16951172 -2.54037109 10.16951172 -3 11 C-3.66 11 -4.32 11 -5 11 C-4.4971641 7.31253672 -4.00153469 4.17890804 -2 1 C-1.34 0.67 -0.68 0.34 0 0 Z " fill="#6F838A" transform="translate(377,226)"/>
<path d="M0 0 C0.99 0 1.98 0 3 0 C1.515 6.435 1.515 6.435 0 13 C-0.33 13 -0.66 13 -1 13 C-0.67 8.71 -0.34 4.42 0 0 Z " fill="#D2D4D4" transform="translate(333,335)"/>
<path d="M0 0 C0.33 0.99 0.66 1.98 1 3 C-0.8125 6.1875 -0.8125 6.1875 -3 9 C-3.66 9 -4.32 9 -5 9 C-3.90931332 5.22454612 -3.0916909 2.52956528 0 0 Z " fill="#6B7F87" transform="translate(392,231)"/>
<path d="M0 0 C1.90318884 2.85478326 2.4619099 4.41941308 3.125 7.6875 C3.29257812 8.49574219 3.46015625 9.30398438 3.6328125 10.13671875 C3.75398438 10.75160156 3.87515625 11.36648438 4 12 C1.36617333 9.50365329 0.03340444 7.53079849 -1 4 C-0.625 1.6875 -0.625 1.6875 0 0 Z " fill="#C8CBCD" transform="translate(313,331)"/>
<path d="M0 0 C0.66 0.33 1.32 0.66 2 1 C0.5361389 5.39158329 -1.97831338 5.87947433 -6 8 C-4.73058503 4.08597051 -3.48832306 2.20927127 0 0 Z " fill="#6B8087" transform="translate(374,316)"/>
<path d="M0 0 C2.72107452 2.3500189 3.96702492 4.55674975 5 8 C4.67 8.99 4.34 9.98 4 11 C3.32591692 9.73308493 2.66099503 8.46129251 2 7.1875 C1.62875 6.47980469 1.2575 5.77210938 0.875 5.04296875 C0 3 0 3 0 0 Z " fill="#74868D" transform="translate(297,301)"/>
<path d="M0 0 C2.18975773 3.28463659 2.99806563 6.20696275 4 10 C3.01 9.67 2.02 9.34 1 9 C-1.26415094 3.79245283 -1.26415094 3.79245283 0 0 Z " fill="#7F8F95" transform="translate(287,244)"/>
<path d="M0 0 C0.66 0 1.32 0 2 0 C2.33 2.64 2.66 5.28 3 8 C2.34 8 1.68 8 1 8 C0.67 5.36 0.34 2.72 0 0 Z " fill="#6A7F86" transform="translate(295,228)"/>
</svg>
