<svg width="622" height="510" viewBox="0 0 622 510" fill="none" xmlns="http://www.w3.org/2000/svg">
<g clip-path="url(#clip0_41_2)">
<path d="M319.062 194.012C320.348 194.018 320.348 194.018 321.66 194.023C324 194.324 324 194.324 327 196.324C327.369 198.991 327.369 198.991 327.361 202.449C327.365 203.756 327.369 205.063 327.373 206.41C327.363 207.866 327.352 209.323 327.341 210.78C327.34 212.307 327.34 213.835 327.342 215.362C327.343 219.517 327.325 223.671 327.304 227.826C327.285 232.165 327.284 236.504 327.28 240.843C327.271 249.063 327.246 257.283 327.216 265.503C327.183 274.859 327.166 284.216 327.151 293.572C327.12 312.823 327.067 332.074 327 351.324C326.67 351.324 326.34 351.324 326 351.324C323.388 330.505 321.049 309.676 318.991 288.795C318.254 281.311 317.504 273.829 316.75 266.348C316.676 265.611 316.601 264.874 316.525 264.116C315 249.023 313.288 233.954 311.422 218.899C309.43 202.707 309.43 202.707 310 197.324C312.608 194.159 315.087 193.934 319.062 194.012Z" fill="white"/>
<path d="M335.813 194.012C338.875 194.1 341.17 194.375 344.125 195.262C346.562 197.942 346.269 199.803 346.191 203.313C345.806 209.38 345.011 215.405 344.263 221.436C342.417 236.388 340.761 251.358 339.25 266.348C339.175 267.089 339.1 267.831 339.023 268.595C338.273 276.041 337.532 283.488 336.798 290.936C334.808 311.102 332.523 331.218 330 351.324C329.67 351.324 329.34 351.324 329 351.324C328.953 331.149 328.918 310.974 328.896 290.799C328.886 281.432 328.872 272.065 328.849 262.698C328.829 254.536 328.816 246.374 328.812 238.213C328.809 233.889 328.803 229.565 328.789 225.241C328.775 221.175 328.771 217.109 328.774 213.043C328.773 211.547 328.769 210.051 328.762 208.556C328.752 206.52 328.755 204.485 328.759 202.449C328.758 201.308 328.756 200.167 328.754 198.991C329.197 194.19 331.553 194.031 335.813 194.012Z" fill="white"/>
<path d="M354.812 198.949C357.7 199.065 359.317 199.454 362.062 200.574C365.254 205.104 363.744 210.023 363 215.324C362.257 219.016 361.304 222.63 360.312 226.262C357.96 235.258 355.902 244.272 354.062 253.387C352.004 263.565 349.817 273.702 347.5 283.824C345.157 294.073 342.923 304.337 340.812 314.637C340.567 315.834 340.321 317.031 340.067 318.265C339.83 319.421 339.592 320.578 339.348 321.77C338.167 327.521 336.983 333.271 335.75 339.012C335.599 339.742 335.448 340.473 335.292 341.226C334.231 346.093 334.231 346.093 332 348.324C332.62 339.025 333.631 329.818 334.812 320.574C336.291 308.81 337.542 297.039 338.639 285.233C340.168 268.805 342.019 252.438 344.125 236.074C344.253 235.075 344.381 234.076 344.514 233.047C345.218 227.582 345.938 222.119 346.682 216.659C346.886 215.16 347.088 213.661 347.286 212.161C347.534 210.303 347.794 208.446 348.055 206.59C348.191 205.603 348.328 204.616 348.468 203.599C349.421 199.522 350.713 199.352 354.812 198.949Z" fill="white"/>
<path d="M305 199.584C307.448 202.032 307.452 203.201 307.947 206.583C308.181 208.157 308.181 208.157 308.42 209.763C308.581 210.913 308.741 212.063 308.906 213.248C309.079 214.45 309.251 215.652 309.429 216.891C311.341 230.527 312.83 244.209 314.281 257.9C314.655 261.414 315.035 264.926 315.415 268.439C316.284 276.487 317.143 284.535 318 292.584C318.116 293.67 318.231 294.755 318.35 295.873C318.56 297.846 318.77 299.818 318.98 301.791C319.342 305.194 319.707 308.598 320.071 312.001C320.303 314.179 320.531 316.358 320.758 318.537C321.512 325.632 322.422 332.659 323.622 339.693C324.014 342.689 324.064 345.566 324 348.584C321.291 345.876 321.155 343.625 320.336 339.885C320.183 339.196 320.03 338.506 319.873 337.795C319.366 335.497 318.87 333.197 318.375 330.897C318.02 329.274 317.664 327.651 317.309 326.028C314.59 313.566 312.035 301.072 309.504 288.571C307.115 276.788 304.578 265.049 301.875 253.334C301.709 252.616 301.544 251.898 301.373 251.158C300.564 247.653 299.753 244.148 298.94 240.643C297.444 234.19 295.963 227.733 294.5 221.272C294.245 220.169 293.989 219.066 293.726 217.929C291.487 207.994 291.487 207.994 292 203.584C295.89 198.965 299.35 199.029 305 199.584Z" fill="white"/>
<path d="M274 219.645C278.584 228.404 282.695 236.998 285.863 246.376C286.912 249.393 288.096 252.283 289.375 255.208C294.662 267.693 298.582 280.751 302.086 293.833C303.925 300.603 306.148 307.223 308.401 313.864C310.337 319.594 312.17 325.342 313.875 331.145C314.18 332.177 314.18 332.177 314.49 333.23C315.49 336.679 316.361 340.111 317 343.645C314.109 341.168 312.977 338.643 311.574 335.134C311.115 334 310.655 332.865 310.181 331.697C309.939 331.089 309.696 330.482 309.446 329.856C308.134 326.572 306.793 323.301 305.453 320.028C305.173 319.343 304.893 318.658 304.604 317.951C299.576 305.687 294.19 293.572 288.807 281.461C288.043 279.742 287.281 278.024 286.52 276.305C282.393 267.026 278.197 257.826 273.43 248.856C272.828 247.725 272.227 246.594 271.608 245.428C270.441 243.253 269.259 241.086 268.062 238.927C263.051 229.645 263.051 229.645 264 223.645C266.862 219.352 269.098 219.478 274 219.645Z" fill="white"/>
<path d="M288 207.584C291.173 213.14 292.621 218.973 294.187 225.147C294.486 226.313 294.785 227.479 295.093 228.68C299.485 246.124 303.094 263.753 306.792 281.354C307.504 284.744 308.22 288.133 308.937 291.522C309.165 292.597 309.393 293.673 309.628 294.781C312.252 307.008 315.178 319.165 318.105 331.322C318.297 332.122 318.489 332.922 318.686 333.745C319.049 335.257 319.414 336.768 319.781 338.279C321 343.36 321 343.36 321 345.584C320.34 345.584 319.68 345.584 319 345.584C318.825 344.978 318.649 344.371 318.468 343.746C312.561 323.34 306.554 302.993 299.768 282.859C298.122 277.975 296.519 273.092 295.062 268.147C290.462 252.967 284.916 237.965 278.388 223.51C275.307 216.536 275.307 216.536 276 212.584C279.891 208.416 282.117 206.884 288 207.584Z" fill="white"/>
<path d="M384.812 218.688C388 219 388 219 390.375 220.562C392.616 223.924 392.326 225.998 392 230C390.996 232.467 389.987 234.599 388.695 236.898C387.968 238.257 387.241 239.616 386.515 240.974C386.126 241.689 385.738 242.403 385.337 243.139C377.847 256.956 371.076 271.027 364.812 285.438C364.443 286.285 364.074 287.133 363.694 288.007C359.576 297.49 355.562 307.015 351.605 316.566C351.256 317.411 350.906 318.255 350.545 319.124C348.881 323.143 347.228 327.166 345.593 331.197C345.01 332.621 344.427 334.045 343.844 335.469C343.583 336.121 343.323 336.773 343.054 337.445C341.226 341.887 341.226 341.887 339 343C340.886 334.96 343.176 327.177 345.875 319.375C348.627 311.292 351.139 303.204 353.347 294.957C354.642 290.16 356.192 285.551 357.965 280.914C359.568 276.4 360.862 271.797 362.162 267.187C363.541 262.355 365.172 257.679 367 253C367.437 251.868 367.874 250.736 368.324 249.57C371.179 242.357 374.17 235.219 377.312 228.125C377.662 227.334 378.012 226.542 378.372 225.727C381.345 219.073 381.345 219.073 384.812 218.688Z" fill="white"/>
<path d="M368 207C371.367 206.77 373.414 206.661 376.375 208.375C376.911 208.911 377.447 209.447 378 210C378 210.66 378 211.32 378 212C378.66 212 379.32 212 380 212C379.443 217.099 378.272 221.349 376.34 226.094C376.074 226.754 375.809 227.415 375.535 228.096C374.968 229.504 374.398 230.912 373.825 232.319C372.322 236.012 370.848 239.717 369.375 243.422C369.082 244.158 368.79 244.893 368.488 245.651C362.412 261 357.183 276.682 352.711 292.57C352.224 294.297 351.737 296.024 351.25 297.75C351.002 298.63 350.754 299.51 350.498 300.416C348.124 308.743 345.495 316.981 342.804 325.21C340.672 331.76 338.749 338.338 337 345C336.34 345 335.68 345 335 345C337.244 333.931 339.706 322.927 342.312 311.937C344.65 302.066 346.804 292.179 348.781 282.229C351.885 266.642 355.493 251.192 359.25 235.75C359.512 234.661 359.775 233.572 360.045 232.451C360.798 229.335 361.561 226.222 362.328 223.109C362.665 221.71 362.665 221.71 363.009 220.282C364.2 215.51 365.567 211.323 368 207Z" fill="white"/>
<path d="M379.188 435.25C379.786 436.158 380.384 437.065 381 438C381.433 438.639 381.866 439.279 382.312 439.938C383.284 442.851 383.367 444.94 383 448C379.23 455.54 372.381 457.987 365 461C365.115 462.438 365.242 463.876 365.375 465.312C365.445 466.113 365.514 466.914 365.586 467.738C365.896 470.272 365.896 470.272 368 473C369.485 473.495 369.485 473.495 371 474C370.67 474.99 370.34 475.98 370 477C365.27 478.862 360.038 479.258 355 479C355.502 478.149 355.502 478.149 356.014 477.281C358.971 470.437 355.173 460.066 353.688 453.062C353.487 452.036 353.287 451.009 353.08 449.951C352.872 448.968 352.664 447.985 352.449 446.973C352.267 446.088 352.085 445.204 351.897 444.293C350.805 441.501 349.426 440.67 347 439C347 438.34 347 437.68 347 437C356.319 433.64 370.449 429.081 379.188 435.25Z" fill="white"/>
<path d="M358 63C379.666 63.7092 379.666 63.7092 386.348 70.3242C388.148 73.2396 388.49 74.6817 388.375 78.0625C388.362 78.8991 388.349 79.7357 388.336 80.5977C387.804 84.4037 386.878 86.2749 383.895 88.7383C380.125 90.3814 376.715 90.3279 372.688 90.1875C371.577 90.1672 371.577 90.1672 370.443 90.1465C368.629 90.1114 366.814 90.0576 365 90C364.18 92.8871 363.838 95.5001 363.812 98.5C363.791 99.6292 363.791 99.6292 363.77 100.781C364.026 103.249 364.772 104.864 366 107C360.431 106.52 355.329 105.701 350 104C350.33 103.01 350.66 102.02 351 101C353.062 100.312 353.062 100.312 355 100C355.122 99.0525 355.245 98.1051 355.371 97.1289C356.179 91.4662 357.433 85.8863 358.627 80.2949C360.659 71.4093 360.659 71.4093 358 63Z" fill="white"/>
<path d="M394 230C400.416 232.499 400.416 232.499 402 235C403.372 242.378 400.065 246.803 396.006 252.744C395.587 253.346 395.169 253.947 394.737 254.567C392.512 257.768 390.351 261.013 388.18 264.25C387.739 264.904 387.298 265.558 386.843 266.231C371.054 289.708 358.016 314.922 345 340C344.34 339.67 343.68 339.34 343 339C344.06 336.395 345.123 333.791 346.188 331.188C346.479 330.469 346.771 329.75 347.072 329.01C348.758 324.896 350.518 320.83 352.371 316.789C354.796 311.496 357.081 306.151 359.35 300.79C367.404 281.766 367.404 281.766 372.168 272.598C374.201 268.669 376.062 264.66 377.946 260.658C382.885 250.176 388.128 239.989 394 230Z" fill="white"/>
<path d="M262 230.646C274.224 251.613 284.763 273.659 294.07 296.067C295.434 299.344 296.869 302.579 298.348 305.806C301.456 312.597 304.382 319.464 307.313 326.333C307.868 327.632 308.423 328.931 308.979 330.229C310.32 333.368 311.661 336.506 313 339.646C312.01 340.141 312.01 340.141 311 340.646C307.325 333.843 303.656 327.049 300.288 320.088C290.014 298.937 277.492 278.256 264.074 258.95C263.426 258.01 262.777 257.07 262.109 256.101C260.862 254.304 259.598 252.519 258.316 250.746C254.643 245.456 252.976 242.122 254 235.646C255.831 232.882 258.556 230.646 262 230.646Z" fill="white"/>
<path d="M173 320C176.49 323.024 177.881 325.525 179 330C179 331.32 179 332.64 179 334C177.788 334.182 177.788 334.182 176.551 334.367C175.482 334.535 174.414 334.702 173.312 334.875C172.257 335.037 171.201 335.2 170.113 335.367C167.202 335.959 164.71 336.803 162 338C162 338.66 162 339.32 162 340C169.514 343.615 175.612 345.835 184 345C186.153 348.858 187.393 351.551 187 356C182.115 354.154 177.625 351.718 173.035 349.242C169.676 347.867 167.588 347.451 164 348C162.034 349.632 162.034 349.632 160.625 352.062C160.049 352.958 159.473 353.854 158.879 354.777C155.395 360.753 152.158 366.848 149 373C146.362 370.492 145.015 368.552 144 365C144.41 360.969 145.519 359.008 148.312 356.125C152.503 351.565 155.637 347.146 157 341C151.097 341.997 146.857 343.299 142 347C141.01 347.66 140.02 348.32 139 349C136.467 344.358 134.535 340.348 134 335C135.847 335.396 135.847 335.396 137.73 335.801C144.292 336.527 149.445 333.846 155.312 331.188C156.383 330.723 157.454 330.258 158.557 329.779C161.384 328.545 164.199 327.293 167 326C167.744 325.664 168.488 325.328 169.255 324.982C171.504 323.717 172.059 322.353 173 320Z" fill="white"/>
<path d="M134 182C134.66 182 135.32 182 136 182C136.482 183.12 136.964 184.24 137.461 185.395C138.099 186.867 138.737 188.34 139.375 189.812C139.692 190.55 140.009 191.288 140.336 192.049C140.8 193.117 140.8 193.117 141.273 194.207C141.556 194.862 141.839 195.516 142.13 196.191C143.075 198.263 143.075 198.263 145 201C155.171 200.465 164.642 196.839 174 193C173.102 200.786 173.102 200.786 171 204C169 205 169 205 165.062 205.312C159.352 205.871 154.292 207.873 149 210C149.723 213.299 149.723 213.299 153.062 214.688C157.132 216.309 160.66 216.228 165 216C164.533 221.414 163.757 225.205 161 230C160.34 230 159.68 230 159 230C158.568 229.225 158.136 228.45 157.69 227.651C155.69 224.514 154.386 223.895 150.957 222.578C149.965 222.193 148.973 221.807 147.951 221.41C146.915 221.027 145.88 220.644 144.812 220.25C143.796 219.852 142.78 219.453 141.732 219.043C135.045 216.496 129.189 215 122 215C122.497 210.027 123.553 206.362 126 202C129 203 129 203 130.312 204.375C133.925 207.854 138.178 209.134 143 210C139.701 200.021 139.701 200.021 132.75 192.625C132.173 192.419 131.595 192.213 131 192C131.75 185.375 131.75 185.375 134 182Z" fill="white"/>
<path d="M242.096 278.646C260.391 282.345 280.493 307.355 291.096 321.646C290.601 322.636 290.601 322.636 290.096 323.646C289.508 323.198 288.92 322.751 288.315 322.29C281.137 317.023 273.81 313.735 265.574 310.474C255.449 306.302 247.414 301.111 242.846 290.833C241.878 286.72 241.927 282.849 242.096 278.646Z" fill="white"/>
<path d="M411 278C411.99 278.33 412.98 278.66 414 279C414.591 287.125 412.362 293.157 407.5 299.688C402.343 305.268 394.906 307.77 388.051 310.684C386.679 311.268 385.308 311.852 383.938 312.438C383.262 312.725 382.586 313.013 381.889 313.309C375.832 315.946 370.426 319.218 365 323C371.999 308.18 387.198 295.791 400 286C400.775 285.404 401.549 284.809 402.348 284.195C405.186 282.042 408.035 279.977 411 278Z" fill="white"/>
<path d="M380 318C380.323 327.842 379.546 338.513 374 347C370.643 348.119 368.118 348.114 364.582 348.098C363.328 348.094 362.075 348.091 360.783 348.088C359.473 348.08 358.163 348.071 356.812 348.062C355.477 348.057 354.142 348.053 352.807 348.049C349.538 348.037 346.269 348.021 343 348C343 347.01 343 346.02 343 345C345.238 343.125 345.238 343.125 348.312 341C352.876 337.756 356.8 334.348 360.688 330.312C372.603 318 372.603 318 380 318Z" fill="white"/>
<path d="M276.096 318.646C286.077 319.82 294.013 329.377 300.596 336.271C304.612 340.383 309.319 343.483 314.096 346.646C313.766 347.306 313.436 347.966 313.096 348.646C309.163 348.67 305.23 348.688 301.297 348.7C299.302 348.708 297.307 348.721 295.312 348.733C294.059 348.737 292.805 348.74 291.514 348.743C290.356 348.748 289.199 348.754 288.006 348.759C285.096 348.646 285.096 348.646 282.096 347.646C277.336 338.155 275.882 329.109 276.096 318.646Z" fill="white"/>
<path d="M250 244.646C250.99 244.646 251.98 244.646 253 244.646C254.894 247.006 254.894 247.006 257.027 250.321C257.412 250.913 257.797 251.505 258.194 252.116C259.452 254.057 260.695 256.007 261.937 257.958C262.802 259.3 263.667 260.642 264.533 261.983C266.657 265.278 268.768 268.581 270.876 271.886C272.408 274.285 273.954 276.674 275.5 279.063C287.282 297.374 297.655 316.499 308 335.646C307.01 336.141 307.01 336.141 306 336.646C305.674 336.109 305.348 335.572 305.013 335.019C289.621 309.732 272.942 285.803 253.316 263.61C252.49 262.653 251.664 261.695 250.812 260.708C250.076 259.874 249.34 259.04 248.582 258.181C246.639 255.068 246.596 253.255 247 249.646C248.312 246.771 248.312 246.771 250 244.646Z" fill="white"/>
<path d="M403 244C403.99 244 404.98 244 406 244C408.024 246.548 408.92 248.639 409.625 251.812C408.649 256.789 405.413 259.386 402 263C400.215 265.052 398.443 267.11 396.688 269.188C395.98 270.024 395.98 270.024 395.258 270.878C378.214 291.167 363.729 313.38 350 336C349.34 335.67 348.68 335.34 348 335C363.269 305.682 380.423 277.895 398.967 250.543C401.128 247.358 401.128 247.358 403 244Z" fill="white"/>
<path d="M463.062 389.562C469.091 390.232 472.527 393.684 476.852 397.734C480.543 401.23 480.543 401.23 485.438 402.375C486.706 402.189 486.706 402.189 488 402C487.637 404.687 487.331 406.559 485.688 408.75C484 410 484 410 482.023 410.301C479.816 410.817 479.816 410.817 478.84 412.996C478.542 413.802 478.244 414.607 477.938 415.438C476.606 418.999 476.305 419.797 473 422C469.163 422.419 466.888 422.546 463.562 420.5C461.385 417.017 461.233 413.939 462 410C462.906 408.102 462.906 408.102 464 406.312C465.97 403.05 466.543 401.695 466 398C464.882 396.656 464.882 396.656 462 396.875C459.118 396.656 459.118 396.656 458 398C457.768 399.515 457.588 401.038 457.438 402.562C457.354 403.389 457.27 404.215 457.184 405.066C457.123 405.704 457.062 406.343 457 407C455.125 407.625 455.125 407.625 453 408C451 406 451 406 450.938 402.875C451.878 397.209 457.347 390.379 463.062 389.562Z" fill="white"/>
<path d="M409 434C414.101 438.131 416.013 442.932 418.404 448.824C419.934 452.693 419.934 452.693 423.215 454.953C423.804 454.969 424.393 454.984 425 455C423.125 458.875 423.125 458.875 422 460C420.763 460.083 419.525 460.165 418.25 460.25C413.778 460.732 411.873 462.518 409 466C408 467 408 467 404.188 467.375C400.836 467.321 400.18 467.145 397.438 464.938C395.485 460.948 395.616 459.225 397 455C399.891 451.358 403.141 448.573 407 446C406.621 442.709 406.621 442.709 405 440C403 439.959 401 439.957 399 440C397.68 442.64 396.36 445.28 395 448C393.68 447.67 392.36 447.34 391 447C390.688 444.813 390.688 444.813 391 442C395.615 436.462 401.491 431.838 409 434Z" fill="white"/>
<path d="M309 449C312.285 450.345 315.355 451.71 317 455C317.528 462.653 316.669 470.381 316 478C316.99 478.33 317.98 478.66 319 479C319 479.66 319 480.32 319 481C316.237 482.381 314.053 482.191 311 482C310.34 481.34 309.68 480.68 309 480C305.445 479.938 301.933 480.135 298.383 480.32C295 480 295 480 292.594 478.207C291 476 291 476 290.375 472.562C291.027 468.844 291.815 467.242 294.871 464.996C298.569 463.266 302.465 462.854 306.488 462.359C308.934 462.266 308.934 462.266 310 461C310.25 458.542 310.25 458.542 310 456C308.185 453.779 308.185 453.779 305.625 453.687C302.534 454.055 301.418 455.128 299 457C297.68 457 296.36 457 295 457C295 455.35 295 453.7 295 452C299.604 449.238 303.678 448.048 309 449Z" fill="white"/>
<path d="M246.095 259.646C249.959 261.168 251.815 263.472 254.345 266.708C257.109 270.186 259.892 273.572 262.908 276.833C275.847 291.258 286.765 307.93 297.408 324.083C297.895 324.811 298.381 325.539 298.883 326.29C300.018 328.035 301.066 329.836 302.095 331.646C301.765 332.306 301.435 332.966 301.095 333.646C296.708 328.326 292.616 322.942 288.783 317.208C278.779 302.827 265.428 290.889 251.062 281.009C250.309 280.488 249.555 279.967 248.779 279.431C248.114 278.986 247.45 278.541 246.765 278.083C244.236 275.905 243.239 273.705 242.795 270.427C242.763 264.214 242.763 264.214 244.595 261.083C245.338 260.371 245.338 260.371 246.095 259.646Z" fill="white"/>
<path d="M408 259C411.875 260.75 411.875 260.75 413 263C413.203 264.988 413.203 264.988 413.25 267.312C413.276 268.072 413.302 268.831 413.328 269.613C412.699 274.187 410.654 276.489 407.066 279.289C405.903 280.074 404.735 280.853 403.562 281.625C397.006 286.132 391.173 291.062 385.463 296.592C384.008 297.992 382.528 299.362 381.043 300.73C374.243 307.124 368.756 314.091 363.451 321.77C360.574 325.926 357.712 329.561 354 333C355.297 329.492 356.825 326.515 358.906 323.41C359.48 322.551 360.054 321.691 360.645 320.805C361.257 319.9 361.869 318.995 362.5 318.062C363.132 317.123 363.764 316.184 364.416 315.216C366.269 312.472 368.132 309.734 370 307C370.471 306.311 370.941 305.621 371.426 304.911C377.658 295.844 384.478 287.311 391.485 278.835C392.869 277.158 394.245 275.476 395.617 273.789C399.678 268.799 403.786 263.862 408 259Z" fill="white"/>
<path d="M310 75C314.883 79.444 315.878 83.345 316.625 89.75C316.974 92.5549 317.42 95.2246 318 98C318.99 98.66 319.98 99.32 321 100C320.67 100.99 320.34 101.98 320 103C314.557 104.139 314.557 104.139 311.5 103.375C307.982 102.847 306.12 104.408 303 106C299.33 106.514 297.733 106.482 294.625 104.438C292.333 101 292.289 99.0505 293 95C297.211 90.2493 301.974 88.6472 308 87C307.34 84.69 306.68 82.38 306 80C304.35 79.67 302.7 79.34 301 79C299.35 80.98 297.7 82.96 296 85C294.68 84.67 293.36 84.34 292 84C292.197 80.4488 292.792 79.2028 295.375 76.6875C300.149 74.4652 304.844 73.6041 310 75Z" fill="white"/>
<path d="M467 135C473.349 135.259 476.669 137.387 481 142C482.637 145.275 482.729 148.48 482 152C480.194 154.645 477.924 156.614 475.5 158.688C470.717 162.497 470.717 162.497 468.594 167.895C468.728 168.589 468.862 169.284 469 170C464.25 169.25 464.25 169.25 462 167C461.959 166.216 461.917 165.433 461.875 164.625C461.281 161.915 461.281 161.915 459.23 160.891C457.806 160.223 456.365 159.589 454.91 158.992C453 158 453 158 451 155C450.573 151.089 450.413 148.88 452.625 145.562C455.733 143.518 457.33 143.486 461 144C464.085 145.296 466.543 146.623 469.125 148.75C470.932 150.246 470.932 150.246 473.187 149.75C474.987 149.141 474.987 149.141 476 148C476.041 145.667 476.042 143.333 476 141C472.7 140.67 469.4 140.34 466 140C466.33 138.35 466.66 136.7 467 135Z" fill="white"/>
<path d="M404.625 89.625C410.218 89.7475 415.066 92.0664 419 96C419.929 102.108 417.733 106.525 415.191 112.035C413.982 115.046 413.415 117.791 413 121C413.66 121 414.32 121 415 121C414.67 121.99 414.34 122.98 414 124C411.188 123.75 411.188 123.75 408 123C407.54 122.334 407.08 121.667 406.605 120.98C405.171 118.775 405.171 118.775 402.695 118.566C401.847 118.565 400.999 118.564 400.125 118.562C396.315 118.311 395.114 118.076 391.812 115.875C390 113 390 113 390 109.375C390.983 106.056 391.367 105.039 394 103C395.901 102.659 395.901 102.659 398.012 102.707C398.769 102.717 399.526 102.726 400.307 102.736C401.485 102.774 401.485 102.774 402.688 102.812C403.883 102.833 403.883 102.833 405.104 102.854C407.069 102.889 409.035 102.943 411 103C411.381 100.674 411.713 98.3394 412 96C411.67 95.67 411.34 95.34 411 95C409.142 95.0898 407.288 95.2461 405.438 95.4375C404.426 95.5393 403.414 95.6412 402.371 95.7461C401.589 95.8299 400.806 95.9137 400 96C399.375 94.125 399.375 94.125 399 92C401 90 401 90 404.625 89.625Z" fill="white"/>
<path d="M489.562 354.324C494.027 355.562 497.868 358.134 501.855 360.441C505.978 362.485 508.509 362.617 513 362C511.775 366.053 510.301 369.444 508 373C505.011 371.587 502.346 369.938 499.625 368.063C493.441 363.496 493.441 363.496 486.188 362.25C484.05 362.804 484.05 362.804 483 364C482.247 367.286 482.247 367.286 483 371C487.79 376.673 495.141 378.857 502 381C501.247 385.508 499.863 388.379 497 392C496.01 392 495.02 392 494 392C493.948 391.252 493.897 390.505 493.844 389.734C492.387 385.015 488.364 383.726 484.234 381.449C479.976 379.541 476.64 379.077 472 379C472.75 372.25 472.75 372.25 475 370C476.32 370 477.64 370 479 370C478.942 369.42 478.884 368.84 478.824 368.242C478.585 364.106 478.521 360.895 481 357.438C484.001 355 485.676 354.067 489.562 354.324Z" fill="white"/>
<path d="M177 367C179.468 368.152 181.048 369.048 183 371C183.516 373.309 183.516 373.309 183 376C180.937 377.935 179.051 379.469 176.75 381.062C171.008 385.106 171.008 385.106 166 390C166.178 393.018 166.837 393.837 169 396C173.908 396.575 176.605 395.483 180.688 392.812C181.619 392.221 182.551 391.629 183.512 391.02C186.126 388.898 187.465 386.972 189 384C190.875 384.312 190.875 384.312 193 385C195 388 195 388 194.984 390.434C193.594 394.06 191.527 395.052 188.25 397.062C179.778 401.93 179.778 401.93 175 410C172.532 408.848 170.952 407.952 169 406C168.875 402.875 168.875 402.875 169 400C168.092 399.629 167.185 399.257 166.25 398.875C162.414 396.662 160.915 394.983 159 391C159.093 386.714 159.379 384.67 162.328 381.488C163.292 380.77 164.257 380.052 165.25 379.312C166.204 378.587 167.158 377.861 168.141 377.113C169.084 376.416 170.028 375.719 171 375C174.671 372.448 174.671 372.448 176.812 368.75C176.905 367.884 176.905 367.884 177 367Z" fill="white"/>
<path d="M224 419C229.75 419.75 229.75 419.75 232 422C231.744 429.023 228.506 433.211 224.617 438.816C222.75 442.493 222.887 444.104 224 448C227.2 449.114 227.2 449.114 231 449C233.57 447.071 235.234 444.66 237 442C237.405 441.401 237.81 440.801 238.227 440.184C240.504 436.521 241.583 433.277 242 429C244.972 430.125 247.334 431.223 250 433C249.379 436.052 248.378 438.273 246.715 440.898C246.043 441.989 246.043 441.989 245.357 443.102C244.413 444.613 243.463 446.121 242.506 447.625C239.88 451.915 238.347 454.796 239 460C234.51 460.364 234.51 460.364 232.25 458.75C230.876 456.827 230.51 455.284 230 453C229.408 452.974 228.817 452.948 228.207 452.922C224.285 452.64 221.497 452.269 218 450.375C215.284 447.15 215.107 445.209 215 441C216.135 438.09 217.746 435.555 219.438 432.938C223.579 426.53 223.579 426.53 224 419Z" fill="white"/>
<path d="M170 149C175.056 150.008 178.569 153.263 182.516 156.406C187.033 159.814 190.345 160.701 196 161C195.453 164.375 194.945 166.082 193 169C190.375 169.188 190.375 169.188 188 169C187.961 169.888 187.961 169.888 187.922 170.793C187.639 174.732 187.247 177.535 185.375 181.062C182.918 183.067 181.402 183.841 178.203 183.633C171.936 181.833 166.376 177.584 161 174C157.875 173.833 157.875 173.833 155 174C155.547 170.625 156.055 168.918 158 166C164.947 166.548 168.581 169.207 174.035 173.285C177.365 175.211 179.218 175.434 183 175C184.329 173.856 184.329 173.856 184.625 170.875C183.913 166.462 183.34 165.947 180 163.25C175.838 160.314 171.851 158.5 167 157C167.547 153.625 168.055 151.918 170 149Z" fill="white"/>
<path d="M233 97C237.558 101.213 240.505 105.751 243.605 111.092C245.934 114.912 247.61 116.864 252 118C250.63 121.161 250.011 121.993 247 124C243.812 123.625 243.812 123.625 241 123C240.752 123.743 240.505 124.485 240.25 125.25C238.838 128.356 237.722 129.94 235 132C231.562 133.062 231.562 133.062 228 133C223.2 128.898 220.297 123.894 217.062 118.547C215.219 115.79 215.219 115.79 212.25 115.141C211.507 115.094 210.765 115.048 210 115C210.375 112.281 210.842 111.158 212.812 109.188C215 108 215 108 216.922 108.137C219.814 109.338 220.735 111.022 222.438 113.625C223.036 114.522 223.634 115.419 224.25 116.344C224.827 117.22 225.405 118.097 226 119C226.972 120.38 227.95 121.756 228.938 123.125C229.958 124.548 229.958 124.548 231 126C234.931 125.425 234.931 125.425 238 123C238.585 118.063 237.462 115.398 234.75 111.312C234.147 110.381 233.543 109.449 232.922 108.488C231.107 106.139 229.369 104.735 227 103C227 102.34 227 101.68 227 101C228.961 99.6106 230.962 98.274 233 97Z" fill="white"/>
<path d="M494 164C497.161 165.37 497.993 165.989 500 169C499.959 169.819 499.918 170.637 499.875 171.48C499.722 174.114 499.722 174.114 501.75 175.738C502.493 176.258 503.235 176.777 504 177.312C507.756 180.404 507.756 180.404 508.812 182.98C509.124 186.337 508.609 188.232 506.504 190.887C502.386 194.706 497.878 197.341 492.785 199.664C490.734 200.918 490.734 200.918 490.246 203.648C490.165 204.424 490.084 205.2 490 206C486.171 204.548 484.746 202.667 483 199C483 197.68 483 196.36 483 195C483.534 194.865 484.067 194.729 484.617 194.59C491.37 192.639 496.441 189.236 502 185C501.658 182.029 501.658 182.029 501 179C498.18 177.59 496.134 177.773 493 178C490.069 179.119 490.069 179.119 487.312 180.75C486.381 181.26 485.449 181.771 484.488 182.297C482.013 183.991 480.73 185.596 479 188C478.34 188 477.68 188 477 188C475.711 186.355 475.711 186.355 474.375 184.188C473.929 183.48 473.483 182.772 473.023 182.043C472 180 472 180 472 177C473.014 177.076 474.029 177.152 475.074 177.23C479.67 176.961 481.941 175.751 485.812 173.312C486.933 172.628 488.053 171.944 489.207 171.238C492.11 168.912 493.029 167.533 494 164Z" fill="white"/>
<path d="M445 409C445.11 409.871 445.219 410.743 445.332 411.641C446.136 417.678 447.05 423.549 448.625 429.438C449.79 433.812 450.307 437.49 450 442C446.996 442.916 445.519 443.23 442.6 441.936C441.784 441.393 440.969 440.849 440.129 440.289C439.225 439.704 438.32 439.119 437.389 438.516C436.456 437.892 435.523 437.268 434.562 436.625C432.716 435.4 430.863 434.183 429.004 432.977C428.187 432.431 427.371 431.885 426.53 431.323C423.672 429.829 421.186 429.372 418 429C419.504 424.789 422.207 423.168 426 421C426.99 421 427.98 421 429 421C429.429 421.736 429.859 422.472 430.301 423.23C432.426 426.694 434.773 428.146 438.188 430.312C439.274 431.01 440.361 431.707 441.48 432.426C442.312 432.945 443.143 433.465 444 434C442.824 424.777 442.824 424.777 440 416C439.01 415.67 438.02 415.34 437 415C438.759 410.94 440.286 409 445 409Z" fill="white"/>
<path d="M258 438C262.056 438.468 265.466 438.88 269 441C268.838 441.84 268.675 442.681 268.508 443.547C267.976 447.164 267.867 450.596 267.875 454.25C267.872 455.472 267.87 456.694 267.867 457.953C267.789 460.918 267.789 460.918 269 463C270.497 461.328 271.972 459.637 273.438 457.938C274.261 456.998 275.085 456.058 275.934 455.09C278.259 451.613 278.716 449.132 279 445C282.719 445.507 285.735 446.116 289 448C289 448.66 289 449.32 289 450C287.615 450.879 286.23 451.758 284.845 452.635C280.219 456.058 276.57 460.795 272.746 465.064C272.064 465.81 271.382 466.556 270.68 467.324C270.069 468.006 269.457 468.687 268.828 469.389C266.859 471.124 265.565 471.608 263 472C261.382 469.131 260.734 466.984 260.621 463.699C260.587 462.886 260.553 462.074 260.518 461.236C260.491 460.395 260.465 459.554 260.438 458.688C260.182 451.689 259.901 444.789 258 438Z" fill="white"/>
<path d="M202 400C205.787 400.541 207.627 402.034 210 405C210 406.32 210 407.64 210 409C211.671 409.433 211.671 409.433 213.375 409.875C217 411 217 411 219 413C218.625 415.625 218.625 415.625 218 418C216.68 418.33 215.36 418.66 214 419C213.629 418.175 213.257 417.35 212.875 416.5C211.22 413.729 211.22 413.729 208.188 413.375C203.226 414.348 200.609 417.336 197.188 420.875C195.537 423.828 195.321 426.665 195 430C191.178 429.44 189.41 427.787 186.75 425.062C186.044 424.352 185.337 423.642 184.609 422.91C183 421 183 421 183 419C184.052 418.773 185.104 418.546 186.188 418.312C190.229 417.144 192.225 415.202 195 412C195.53 411.437 196.06 410.873 196.605 410.293C199.618 407.009 201.719 404.64 202 400Z" fill="white"/>
<path d="M279 80C278.867 80.5736 278.734 81.1473 278.598 81.7383C277.087 89.0029 276.634 96.1388 276.43 103.536C276.401 104.329 276.373 105.121 276.344 105.938C276.325 106.648 276.306 107.358 276.287 108.09C276 110 276 110 274 113C269.058 112.595 267.232 110.55 264.062 106.875C263.195 105.884 262.327 104.892 261.434 103.871C260.002 102.182 258.575 100.488 257.16 98.7852C254.613 95.719 252.641 93.6192 249 92C249.33 91.01 249.66 90.02 250 89C253.604 87.4784 256.052 87 260 87C260.33 87.9488 260.66 88.8975 261 89.875C263.275 95.2522 267.128 99.6858 271 104C271.33 104 271.66 104 272 104C272.054 101.25 272.094 98.5005 272.125 95.75C272.142 94.9727 272.159 94.1954 272.176 93.3945C272.26 87.9169 272.26 87.9169 270 83C275.625 80 275.625 80 279 80Z" fill="white"/>
<path d="M434 105C437.985 105.823 440.68 107.661 444 110C443.353 112.992 442.343 115.505 441 118.25C439.023 122.57 438.344 126.277 438 131C439.794 129.878 441.585 128.752 443.375 127.625C444.373 126.999 445.371 126.372 446.399 125.727C449.888 123.472 449.888 123.472 451.625 119.875C451.749 119.256 451.873 118.637 452 118C456.355 119.161 458.646 120.077 461 124C459.87 124.376 458.739 124.753 457.574 125.141C451.686 127.345 446.656 130.857 441.447 134.324C440.687 134.81 439.928 135.296 439.145 135.797C438.129 136.467 438.129 136.467 437.093 137.151C434.388 138.248 432.76 137.785 430 137C429.563 131.538 430.373 127.373 432 122.125C433.806 116.226 434.509 111.138 434 105Z" fill="white"/>
<path d="M197 121C199.625 121.375 199.625 121.375 202 122C202.33 123.32 202.66 124.64 203 126C202.175 126.371 201.35 126.743 200.5 127.125C197.768 128.777 197.768 128.777 197.25 131.688C198.378 136.671 201.07 139.797 205 143C207.76 144.171 209.997 144.578 213 145C211.602 148.158 209.948 150.323 207.5 152.75C206.587 153.67 206.587 153.67 205.656 154.609C204 156 204 156 202 156C201.835 155.031 201.67 154.061 201.5 153.062C199.727 146.72 194.348 141.565 189 138C187.345 137.615 185.678 137.272 184 137C184.389 134.277 185.067 132.911 186.75 130.688C189 129 189 129 191.75 129.25C192.493 129.498 193.235 129.745 194 130C194.124 128.886 194.248 127.773 194.375 126.625C195 123 195 123 197 121Z" fill="white"/>
<path d="M365 208C365.66 208.33 366.32 208.66 367 209C366.596 210.616 366.192 212.232 365.788 213.849C365.428 215.286 365.069 216.724 364.71 218.162C363.806 221.781 362.9 225.399 361.987 229.016C356.942 249.027 352.441 269.106 348.309 289.325C344.626 307.329 340.522 325.189 336 343C335.34 343 334.68 343 334 343C335.234 335.029 336.803 327.215 338.688 319.375C341.147 308.951 343.373 298.495 345.5 288C348.206 274.678 351.127 261.423 354.249 248.191C355.597 242.464 356.923 236.732 358.25 231C358.496 229.944 358.743 228.887 358.996 227.799C360.301 222.172 361.494 216.558 362.464 210.863C362.641 210.248 362.818 209.634 363 209C363.66 208.67 364.32 208.34 365 208Z" fill="#34B2D8"/>
<path d="M377 226C378 229 378 229 377.215 231.102C376.793 231.934 376.372 232.767 375.938 233.625C373.324 239.104 371.281 244.651 369.307 250.381C367.824 254.678 366.278 258.94 364.646 263.183C362.07 269.88 359.893 276.572 357.996 283.5C356.936 287.226 355.743 290.895 354.5 294.562C352.446 300.638 350.502 306.738 348.644 312.876C347.83 315.56 347.013 318.243 346.195 320.926C344.462 326.617 342.73 332.308 341 338C340.34 337.67 339.68 337.34 339 337C340.242 330.948 341.823 325.117 343.75 319.25C345.989 312.306 348.083 305.335 350.062 298.312C356.263 276.445 363.449 254.885 372 233.812C372.417 232.771 372.417 232.771 372.843 231.709C374.753 227.124 374.753 227.124 377 226Z" fill="#34B2D8"/>
<path d="M291 216C291.99 216 292.98 216 294 216C299.523 237.475 304.478 259.069 308.864 280.802C311.463 293.665 314.332 306.455 317.336 319.229C319.18 327.113 320.801 334.988 322 343C321.34 343 320.68 343 320 343C316.264 328.895 313.029 314.721 310.062 300.438C305.182 276.952 299.928 253.569 294.262 230.258C293.114 225.518 292.042 220.765 291 216Z" fill="#34B2D8"/>
<path d="M360 437C368.498 436.109 368.498 436.109 371.777 438.055C374.297 440.757 375.352 443.467 375.625 447.063C375 451 375 451 372.938 453.938C369.532 456.329 367.114 456.758 363 457C358.022 443.132 358.022 443.132 360 437Z" fill="#34B2D8"/>
<path d="M281 229C283.435 231.435 284.063 233.48 285.242 236.715C285.669 237.877 286.096 239.039 286.535 240.236C287.198 242.068 287.198 242.068 287.875 243.938C288.309 245.124 288.744 246.311 289.191 247.533C290.055 249.894 290.915 252.255 291.772 254.618C292.558 256.784 293.35 258.947 294.148 261.108C295.889 265.829 297.516 270.509 298.812 275.375C300.496 281.426 302.425 287.364 304.438 293.312C307.53 302.48 310.367 311.691 313 321C313.23 321.808 313.46 322.615 313.697 323.447C314.406 325.943 315.111 328.44 315.812 330.938C316.032 331.714 316.251 332.49 316.477 333.29C318 338.765 318 338.765 318 341C317.34 341 316.68 341 316 341C313.529 333.77 311.108 326.551 309.062 319.188C307.579 313.873 305.905 308.658 304.125 303.438C301.915 296.946 299.955 290.421 298.125 283.812C293.997 269.014 289.057 254.431 282.969 240.32C281.681 237.236 280.71 234.267 280 231C280.33 230.34 280.66 229.68 281 229Z" fill="#34B2D8"/>
<path d="M493 332C499.343 332.564 504.712 334.646 510.598 336.941C515.154 338.359 518.478 338.507 523 337C522.01 341.836 521.043 346.476 519 351C518.01 350.67 517.02 350.34 516 350C515.67 349.01 515.34 348.02 515 347C512.655 345.986 510.423 345.148 508 344.375C501.09 342.09 501.09 342.09 500 341C498.475 341.089 496.953 341.245 495.438 341.438C494.611 341.539 493.785 341.641 492.934 341.746C492.296 341.83 491.657 341.914 491 342C491.14 340.52 491.288 339.041 491.438 337.562C491.519 336.739 491.6 335.915 491.684 335.066C492 333 492 333 493 332Z" fill="white"/>
<path d="M369 68C373.126 68.1587 375.542 68.695 379 71C381.453 74.6802 381.479 76.5777 380.695 80.8359C379.533 84.4522 378.214 85.9911 375 88C371.895 88.0988 369.027 87.6661 366 87C364.507 83.0482 365.465 79.8413 366.375 75.8125C366.651 74.5608 366.927 73.3091 367.211 72.0195C368 69 368 69 369 68Z" fill="#34B2D8"/>
<path d="M392 231C393 234 393 234 391.367 237.281C390.543 238.691 389.712 240.097 388.875 241.5C378.95 258.756 370.666 276.924 363 295.281C361.607 298.608 360.148 301.897 358.645 305.176C355.539 311.962 352.616 318.824 349.688 325.688C349.132 326.986 348.577 328.285 348.021 329.584C346.68 332.722 345.339 335.861 344 339C343.34 338.34 342.68 337.68 342 337C372.48 265.495 372.48 265.495 383.688 243.75C384.289 242.581 384.89 241.412 385.51 240.208C386.067 239.144 386.625 238.08 387.199 236.984C387.693 236.043 388.186 235.102 388.694 234.132C390 232 390 232 392 231Z" fill="#34B2D8"/>
<path d="M515 205C517.452 205.981 518.781 206.687 520.312 208.875C521.149 211.462 521.043 212.501 520 215C517.99 216.125 517.99 216.125 515.379 217C514.444 217.33 513.508 217.66 512.545 218C511.561 218.33 510.577 218.66 509.562 219C507.622 219.653 505.685 220.319 503.754 221C502.891 221.289 502.028 221.577 501.139 221.875C498.588 223.217 497.995 224.345 497 227C496.34 227 495.68 227 495 227C494.327 225.399 493.662 223.794 493 222.188C492.629 221.294 492.257 220.401 491.875 219.48C491 217 491 217 491 214C492.156 214.22 493.313 214.441 494.504 214.668C499.251 215.257 502.608 214.172 506.938 212.312C507.608 212.055 508.279 211.798 508.971 211.533C512.766 210.047 512.766 210.047 514.941 206.793C514.961 206.201 514.98 205.61 515 205Z" fill="white"/>
<path d="M265 235C268.855 236.285 269.082 237.458 270.941 241C271.516 242.094 272.09 243.187 272.682 244.314C273.31 245.542 273.937 246.771 274.562 248C274.885 248.628 275.208 249.257 275.541 249.904C290.003 278.126 301.889 307.713 314 337C313.34 337.66 312.68 338.32 312 339C311.553 337.9 311.105 336.801 310.645 335.668C307.255 327.367 303.787 319.129 300 311C297.04 304.646 294.264 298.243 291.625 291.75C285.739 277.356 278.805 263.505 271.799 249.634C270.914 247.877 270.914 247.877 270.012 246.086C269.48 245.035 268.949 243.983 268.401 242.9C267.145 240.3 266.032 237.695 265 235Z" fill="#34B2D8"/>
<path d="M315 249C315.33 249 315.66 249 316 249C316.081 249.8 316.162 250.6 316.246 251.424C317.024 259.112 317.803 266.799 318.583 274.487C319.061 279.202 319.538 283.917 320.016 288.632C320.248 290.924 320.481 293.217 320.713 295.509C321.021 298.549 321.329 301.589 321.635 304.629C322.378 311.979 323.138 319.326 323.935 326.67C324.082 328.032 324.228 329.394 324.374 330.756C324.647 333.291 324.925 335.826 325.209 338.361C325.328 339.475 325.448 340.589 325.571 341.738C325.732 343.198 325.732 343.198 325.897 344.687C326 347 326 347 325 349C324.34 348.67 323.68 348.34 323 348C322.65 345.586 322.65 345.586 322.488 342.375C322.062 335.55 321.301 328.81 320.443 322.028C318.868 309.528 317.397 297.016 316.019 284.493C315.841 282.89 315.662 281.287 315.481 279.684C313.061 258.211 313.061 258.211 315 249Z" fill="#34B2D8"/>
<path d="M400 245C400.99 245.33 401.98 245.66 403 246C402.523 246.708 402.046 247.416 401.554 248.145C387.293 269.333 373.548 290.741 361 313C360.453 313.968 359.906 314.937 359.342 315.935C357.634 318.971 355.94 322.015 354.25 325.062C353.443 326.501 353.443 326.501 352.619 327.969C352.131 328.857 351.643 329.745 351.141 330.66C350.703 331.45 350.265 332.241 349.813 333.055C349.411 334.018 349.411 334.018 349 335C349.33 335.66 349.66 336.32 350 337C348.02 337.495 348.02 337.495 346 338C347.671 332.153 350.433 326.981 353.25 321.625C353.778 320.618 354.306 319.612 354.85 318.575C368.325 293.13 383.5 268.585 400 245Z" fill="#34B2D8"/>
<path d="M407 258C407 262.302 404.429 264.267 401.688 267.312C400.576 268.579 399.467 269.847 398.359 271.117C397.513 272.087 397.513 272.087 396.65 273.077C392.234 278.223 388.108 283.607 384 289C383.564 289.573 383.127 290.145 382.678 290.735C373.144 303.327 364.061 316.415 356 330C355.01 329.67 354.02 329.34 353 329C364.962 310.295 377.142 291.871 391.442 274.855C393.021 272.975 394.588 271.084 396.152 269.191C397.142 268.002 398.133 266.813 399.125 265.625C399.799 264.812 399.799 264.812 400.487 263.983C402.551 261.537 404.311 259.792 407 258Z" fill="#34B2D8"/>
<path d="M254 246C254.99 246 255.98 246 257 246C258.663 247.99 258.663 247.99 260.484 250.809C261.165 251.853 261.845 252.898 262.546 253.974C263.281 255.128 264.016 256.282 264.75 257.438C265.512 258.622 266.275 259.807 267.038 260.991C282.38 284.904 296.556 309.453 309 335C308.34 335 307.68 335 307 335C306.608 334.257 306.217 333.513 305.813 332.747C293.818 310.023 280.939 288.207 266.8 266.736C264.04 262.541 261.298 258.336 258.562 254.125C258.096 253.411 257.629 252.698 257.148 251.962C254 247.115 254 247.115 254 246Z" fill="#34B2D8"/>
<path d="M338 271C340.55 274.825 340.075 277.626 339.746 282.012C339.694 282.808 339.641 283.605 339.587 284.426C339.029 292.454 338.218 300.455 337.325 308.452C337.061 310.829 336.804 313.206 336.549 315.584C335.681 323.55 334.696 331.467 333.377 339.375C332.908 342.64 332.847 345.71 333 349C332.34 349 331.68 349 331 349C330.106 345.324 329.992 342.315 330.406 338.562C330.576 336.963 330.576 336.963 330.75 335.331C330.945 333.613 330.945 333.613 331.145 331.859C331.274 330.664 331.404 329.468 331.538 328.236C331.956 324.407 332.384 320.578 332.813 316.75C333.09 314.219 333.367 311.688 333.643 309.156C335.036 296.431 336.473 283.71 338 271Z" fill="#34B2D8"/>
<path d="M262 275C265.589 275.555 266.889 276.641 269.039 279.523C269.611 280.284 270.183 281.045 270.772 281.829C271.384 282.669 271.995 283.509 272.625 284.375C273.268 285.245 273.911 286.116 274.573 287.012C280.146 294.643 285.446 302.453 290.688 310.312C291.075 310.893 291.462 311.474 291.861 312.072C295.769 317.946 299.614 323.808 303 330C302.01 330.495 302.01 330.495 301 331C300.518 330.266 300.035 329.532 299.538 328.775C290.793 315.494 282.06 302.277 272.314 289.699C270.102 286.839 267.926 283.951 265.75 281.062C265.023 280.105 264.296 279.147 263.547 278.16C262 276 262 276 262 275Z" fill="#34B2D8"/>
<path d="M408 277C408.99 277.33 409.98 277.66 411 278C408.87 280.222 406.646 282.09 404.188 283.938C389.699 295.139 374.748 307.296 365 323C364.34 322.34 363.68 321.68 363 321C373.434 306.059 386.493 292.764 401 281.75C401.664 281.243 402.328 280.735 403.012 280.213C404.875 278.859 404.875 278.859 408 277Z" fill="#34B2D8"/>
<path d="M344 213C344.33 214.32 344.66 215.64 345 217C345.66 217 346.32 217 347 217C346.468 222.101 345.935 227.201 345.401 232.302C345.22 234.028 345.04 235.755 344.86 237.482C344.337 242.497 343.806 247.511 343.264 252.524C342.999 255.007 342.745 257.492 342.491 259.977C342.325 261.528 342.159 263.078 341.992 264.629C341.922 265.345 341.851 266.062 341.779 266.8C341.228 271.772 341.228 271.772 339 274C338.434 261.31 340.122 248.779 341.5 236.188C341.741 233.934 341.982 231.681 342.223 229.428C342.808 223.951 343.401 218.475 344 213Z" fill="#34B2D8"/>
<path d="M467 405C467.061 405.638 467.121 406.276 467.184 406.934C467.267 407.76 467.351 408.586 467.437 409.438C467.519 410.261 467.6 411.085 467.684 411.934C467.789 413.987 467.789 413.987 469 415C473.651 414.552 473.651 414.552 478 413C477.52 418.4 477.52 418.4 475.375 420.875C472.026 422.461 469.66 422.457 466 422C463.562 420.5 463.562 420.5 462 418C461.311 413.743 461.409 409.599 464 406C466 405 466 405 467 405Z" fill="white"/>
<path d="M249 279C266.18 287.781 282.78 304.776 293 321C292.34 321.66 291.68 322.32 291 323C290.237 321.928 289.474 320.855 288.688 319.75C284.214 313.789 279.11 308.41 274 303C273.268 302.214 272.536 301.427 271.781 300.617C266.819 295.451 261.441 291.061 255.696 286.804C252.637 284.496 250.297 282.684 249 279Z" fill="#34B2D8"/>
<path d="M411 449C412.848 452.118 413.543 454.381 413 458C411.312 460.375 411.312 460.375 409 462C405.608 461.838 404.417 461.417 402 459C402.086 455.036 402.542 453.458 405.375 450.625C408 449 408 449 411 449Z" fill="#34B2D8"/>
<path d="M309 466C309.485 472.3 309.485 472.3 307.312 475.437C304.578 477.285 303.236 477.511 300 477C298 475 298 475 297.625 472.062C298 469 298 469 299.562 467.125C302.803 465.629 305.476 465.797 309 466Z" fill="#34B2D8"/>
<path d="M469 403C471.988 403.323 473.613 403.652 475.875 405.688C477.409 408.841 476.939 410.677 476 414C474 416 474 416 471.5 416.25C469 416 469 416 467 414C466.536 406.696 466.536 406.696 469 403Z" fill="#34B2D8"/>
<path d="M310 91C310.485 97.3 310.485 97.3 308.312 100.438C305.578 102.285 304.236 102.511 301 102C300.34 101.34 299.68 100.68 299 100C299.062 96.5625 299.062 96.5625 300 93C303.448 89.9352 305.651 89.6331 310 91Z" fill="#34B2D8"/>
<path d="M461.812 148.625C465.693 149.082 467.267 150.267 470 153C470 155 470 155 467.875 157.188C465 159 465 159 461.875 158.938C457.602 157.544 457.602 157.544 456 155C456.364 150.997 457.724 149.17 461.812 148.625Z" fill="#34B2D8"/>
<path d="M400.875 105.77C401.576 105.784 402.277 105.798 403 105.812C404.052 105.822 404.052 105.822 405.125 105.832C407 106 407 106 409 107C408.654 110.113 408.126 111.829 406.25 114.375C404 116 404 116 401.375 115.812C399 115 399 115 397 114C396.875 111.125 396.875 111.125 397 108C399 106 399 106 400.875 105.77Z" fill="#34B2D8"/>
<path d="M310 218C310.66 218 311.32 218 312 218C314.263 230.391 315.183 242.406 315 255C314.34 255 313.68 255 313 255C312.491 250.709 311.994 246.417 311.5 242.125C311.357 240.921 311.214 239.717 311.066 238.477C310.283 231.615 309.785 224.907 310 218Z" fill="#34B2D8"/>
<path d="M140 272.75C143 273 143 273 145 275C145.25 277.5 145.25 277.5 145 280C143 282 143 282 140 282.25C137 282 137 282 135 280C134.75 277.5 134.75 277.5 135 275C137 273 137 273 140 272.75Z" fill="white"/>
<path d="M321 308C321.33 308 321.66 308 322 308C322.596 313.517 323.183 319.034 323.764 324.553C323.963 326.431 324.163 328.309 324.366 330.187C324.657 332.882 324.941 335.577 325.223 338.273C325.315 339.116 325.408 339.959 325.503 340.827C326.114 346.772 326.114 346.772 325 349C324.34 348.67 323.68 348.34 323 348C322.656 345.551 322.656 345.551 322.5 342.312C322.214 337.466 321.681 332.787 320.875 328C319.833 321.182 320.161 314.824 321 308Z" fill="#34B2D8"/>
<path d="M514 273C517.625 273.375 517.625 273.375 521 274C521.625 276.312 521.625 276.312 522 279C521.01 280.485 521.01 280.485 520 282C517 282.312 517 282.312 514 282C512 280 512 280 511.75 277.5C512 275 512 275 514 273Z" fill="white"/>
<path d="M338 271C340.628 274.941 340.033 278.041 339.687 282.562C339.633 283.37 339.578 284.178 339.521 285.01C339.359 287.341 339.18 289.67 339 292C338.925 293.102 338.85 294.204 338.773 295.34C338.266 301.734 338.266 301.734 336 304C335.729 292.823 336.465 282.072 338 271Z" fill="#34B2D8"/>
<path d="M482.5 326.875C485 327 485 327 486 328C486.125 331 486.125 331 486 334C485 335 485 335 482.562 335.188C480 335 480 335 478 333C478.724 327.064 478.724 327.064 482.5 326.875Z" fill="white"/>
<path d="M531.188 203.375C531.786 203.581 532.384 203.788 533 204C533.625 206.875 533.625 206.875 534 210C533.34 210.66 532.68 211.32 532 212C529.375 211.625 529.375 211.625 527 211C526.67 209.02 526.34 207.04 526 205C529 203 529 203 531.188 203.375Z" fill="white"/>
<path d="M342 320C343.17 323.43 342.813 325.543 341.785 328.984C341.511 329.919 341.237 330.854 340.955 331.816C340.661 332.784 340.366 333.753 340.062 334.75C339.772 335.734 339.481 336.717 339.182 337.73C338.463 340.156 337.736 342.579 337 345C336.34 345 335.68 345 335 345C335.617 341.936 336.245 338.874 336.875 335.812C337.049 334.948 337.223 334.084 337.402 333.193C339.645 322.355 339.645 322.355 342 320Z" fill="white"/>
<path d="M368 312C368.33 312.66 368.66 313.32 369 314C367.071 316.798 365.131 319.587 363.188 322.375C362.64 323.169 362.093 323.963 361.529 324.781C360.998 325.542 360.466 326.302 359.918 327.086C359.431 327.788 358.944 328.489 358.442 329.212C357 331 357 331 354 333C355.62 328.251 358.217 324.377 361 320.25C361.451 319.566 361.902 318.881 362.367 318.176C365.747 313.127 365.747 313.127 368 312Z" fill="white"/>
<path d="M361 314C362 317 362 317 361.012 319.085C360.25 320.255 360.25 320.255 359.473 321.449C358.928 322.297 358.383 323.144 357.822 324.018C357.242 324.899 356.661 325.78 356.062 326.688C355.486 327.58 354.909 328.473 354.314 329.393C352.885 331.601 351.447 333.803 350 336C349.34 335.67 348.68 335.34 348 335C349.783 331.683 351.578 328.372 353.375 325.062C354.137 323.644 354.137 323.644 354.914 322.197C355.649 320.849 355.649 320.849 356.398 319.473C356.849 318.64 357.299 317.807 357.763 316.949C359 315 359 315 361 314Z" fill="white"/>
<path d="M315 322C316.539 324.83 317.431 327.394 318.07 330.547C318.331 331.813 318.331 331.813 318.598 333.105C318.772 333.978 318.946 334.851 319.125 335.75C319.307 336.638 319.489 337.526 319.676 338.441C320.122 340.627 320.563 342.813 321 345C320.34 345 319.68 345 319 345C318.13 342.296 317.279 339.588 316.437 336.875C316.191 336.114 315.944 335.354 315.689 334.57C314.29 329.997 313.731 326.757 315 322Z" fill="white"/>
<path d="M312 236C312.66 236 313.32 236 314 236C314.84 240.353 315.108 244.444 315.062 248.875C315.053 250.027 315.044 251.18 315.035 252.367C315.024 253.236 315.012 254.105 315 255C314.34 255 313.68 255 313 255C312.67 248.73 312.34 242.46 312 236Z" fill="#34B2D8"/>
<path d="M344 324C344.33 324.66 344.66 325.32 345 326C345.66 326 346.32 326 347 326C345.167 331.999 342.927 337.449 340 343C338.728 340.456 339.179 339.755 339.996 337.086C340.339 335.945 340.339 335.945 340.689 334.781C340.936 333.987 341.183 333.193 341.438 332.375C341.68 331.573 341.923 330.771 342.174 329.945C342.776 327.962 343.387 325.981 344 324Z" fill="white"/>
<path d="M290 317C290.99 317 291.98 317 293 317C294.739 319.265 296.252 321.46 297.75 323.875C298.174 324.526 298.598 325.177 299.035 325.848C300.095 327.522 301.056 329.258 302 331C301.67 331.66 301.34 332.32 301 333C292.369 322.626 292.369 322.626 290 317Z" fill="white"/>
<path d="M343 235C343.33 235 343.66 235 344 235C344.214 241.644 343.512 247.532 342 254C341.67 254 341.34 254 341 254C340.802 247.295 340.692 241.348 343 235Z" fill="#34B2D8"/>
<path d="M305 322C307.261 325.391 308.653 328.915 310.125 332.688C310.402 333.389 310.679 334.091 310.965 334.814C311.646 336.542 312.324 338.271 313 340C312.34 340 311.68 340 311 340C309.797 337.757 308.613 335.507 307.437 333.25C307.095 332.616 306.753 331.982 306.4 331.328C303.936 326.549 303.936 326.549 304.285 323.547C304.521 323.036 304.757 322.526 305 322Z" fill="white"/>
<path d="M384 297C384.33 297.99 384.66 298.98 385 300C382.36 302.64 379.72 305.28 377 308C376.34 307.34 375.68 306.68 375 306C377.97 303.03 380.94 300.06 384 297Z" fill="#34B2D8"/>
<path d="M349 325C349.99 325 350.98 325 352 325C350.634 328.542 349.091 331.926 347.375 335.312C346.929 336.196 346.483 337.079 346.023 337.988C345.686 338.652 345.348 339.316 345 340C344.34 339.67 343.68 339.34 343 339C344.98 334.38 346.96 329.76 349 325Z" fill="white"/>
<path d="M265 235C268 236 268 236 269.605 238.941C270.128 240.136 270.65 241.331 271.188 242.562C271.717 243.76 272.247 244.958 272.793 246.191C273.191 247.118 273.59 248.045 274 249C273.01 249.495 273.01 249.495 272 250C270.828 247.878 269.662 245.752 268.5 243.625C268.166 243.022 267.832 242.418 267.488 241.797C265 237.227 265 237.227 265 235Z" fill="#34B2D8"/>
<path d="M357 278C357.33 278 357.66 278 358 278C357.588 282.971 357.204 287.445 355 292C354.34 292 353.68 292 353 292C353.539 286.723 354.773 282.744 357 278Z" fill="#34B2D8"/>
<path d="M298 321C301 322 301 322 302.824 325.16C303.456 326.456 304.076 327.757 304.688 329.062C305.008 329.726 305.328 330.389 305.658 331.072C306.448 332.711 307.225 334.355 308 336C307.34 336 306.68 336 306 336C304.527 333.9 303.187 331.822 301.875 329.625C301.502 329.022 301.13 328.418 300.746 327.797C298 323.27 298 323.27 298 321Z" fill="white"/>
<path d="M307 307C310.178 310.466 311.46 314.389 312 319C311.547 321.25 311.547 321.25 311 323C310.323 321.275 309.659 319.545 309 317.812C308.443 316.368 308.443 316.368 307.875 314.895C307.024 312.078 306.829 309.918 307 307Z" fill="#34B2D8"/>
<path d="M377 226C378 229 378 229 377.223 231.043C376.84 231.751 376.457 232.458 376.062 233.188C375.682 233.903 375.302 234.618 374.91 235.355C374.46 236.17 374.46 236.17 374 237C373.34 237 372.68 237 372 237C372.503 233.313 372.998 230.179 375 227C375.66 226.67 376.32 226.34 377 226Z" fill="#34B2D8"/>
<path d="M333 335C333.99 335 334.98 335 336 335C334.515 341.435 334.515 341.435 333 348C332.67 348 332.34 348 332 348C332.33 343.71 332.66 339.42 333 335Z" fill="white"/>
<path d="M392 231C392.33 231.99 392.66 232.98 393 234C391.188 237.188 391.188 237.188 389 240C388.34 240 387.68 240 387 240C388.091 236.225 388.908 233.53 392 231Z" fill="#34B2D8"/>
<path d="M313 331C314.903 333.855 315.462 335.419 316.125 338.688C316.293 339.496 316.46 340.304 316.633 341.137C316.754 341.752 316.875 342.366 317 343C314.366 340.504 313.033 338.531 312 335C312.375 332.688 312.375 332.688 313 331Z" fill="white"/>
<path d="M374 316C374.66 316.33 375.32 316.66 376 317C374.536 321.392 372.022 321.879 368 324C369.269 320.086 370.512 318.209 374 316Z" fill="#34B2D8"/>
<path d="M297 301C299.721 303.35 300.967 305.557 302 309C301.67 309.99 301.34 310.98 301 312C300.326 310.733 299.661 309.461 299 308.188C298.629 307.48 298.257 306.772 297.875 306.043C297 304 297 304 297 301Z" fill="#34B2D8"/>
<path d="M287 244C289.19 247.285 289.998 250.207 291 254C290.01 253.67 289.02 253.34 288 253C285.736 247.792 285.736 247.792 287 244Z" fill="#34B2D8"/>
<path d="M295 228C295.66 228 296.32 228 297 228C297.33 230.64 297.66 233.28 298 236C297.34 236 296.68 236 296 236C295.67 233.36 295.34 230.72 295 228Z" fill="#34B2D8"/>
</g>
<defs>
<clipPath id="clip0_41_2">
<rect width="622" height="510" fill="white"/>
</clipPath>
</defs>
</svg>
